g SlashMesh5
v 0.74145329 2.11677476E-09 0.0717765093
v 0.659069598 2.11677476E-09 0.0828803703
v 0.653431177 0.0860258415 0.0828803703
v 0.735110104 0.0967790708 0.0717765093
v 0.867159724 3.35174555E-09 0.0414401852
v 0.636612356 0.170579717 0.0828803703
v 0.859741092 0.113187045 0.0414401852
v 0.982952416 2.05227968E-09 6.96642223E-12
v 0.974543035 0.12830101 6.96642223E-12
v 0.716188908 0.191902205 0.0717765093
v 0.608900905 0.252214968 0.0828803703
v 0.837612033 0.224437416 0.0414401852
v 0.949459016 0.25440672 6.96642223E-12
v 0.685013533 0.283741832 0.0717765093
v 0.570770979 0.329534888 0.0828803703
v 0.801151156 0.331847608 0.0414401852
v 0.908129573 0.376159489 6.96642223E-12
v 0.642117321 0.370726734 0.0717765093
v 0.52287513 0.40121606 0.0828803703
v 0.750982344 0.433579952 0.0414401852
v 0.851261675 0.491476297 6.96642223E-12
v 0.588234544 0.451368093 0.0717765093
v 0.466032535 0.466032624 0.0828803703
v 0.687964201 0.527893305 0.0414401852
v 0.779828608 0.598383367 6.96642223E-12
v 0.524286568 0.524286687 0.0717765093
v 0.401216239 0.522874951 0.0828803703
v 0.613174498 0.613174558 0.0414401852
v 0.695052207 0.695052385 6.96642223E-12
v 0.451368272 0.588234365 0.0717765093
v 0.329534769 0.570771039 0.0828803703
v 0.527893543 0.687963963 0.0414401852
v 0.598383605 0.779828429 6.96642223E-12
v 0.370726615 0.642117441 0.0717765093
v 0.252215177 0.608900845 0.0828803703
v 0.433579832 0.750982404 0.0414401852
v 0.491476178 0.851261735 6.96642223E-12
v 0.28374207 0.685013413 0.0717765093
v 0.170579776 0.636612356 0.0828803703
v 0.331847906 0.801151037 0.0414401852
v 0.376159817 0.908129513 6.96642223E-12
v 0.191902265 0.716188908 0.0717765093
v 0.0860257223 0.653431177 0.0828803703
v 0.224437475 0.837612033 0.0414401852
v 0.25440681 0.949459016 6.96642223E-12
v 0.0967789441 0.735110104 0.0717765093
v 4.95164478E-08 0.659069598 0.0828803703
v 0.113186903 0.859741092 0.0414401852
v 0.128300861 0.974543035 6.96642223E-12
v 5.57362476E-08 0.74145329 0.0717765093
v -0.0860259384 0.653431118 0.0828803703
v 7.24363716E-08 0.867159724 0.0414401852
v 8.11798699E-08 0.982952416 6.96642223E-12
v -0.0967791751 0.735110044 0.0717765093
v -0.170579687 0.636612356 0.0828803703
v -0.113187179 0.859741032 0.0414401852
v -0.128301159 0.974542975 6.96642223E-12
v -0.191902146 0.716188908 0.0717765093
v -0.252215058 0.608900905 0.0828803703
v -0.224437356 0.837612092 0.0414401852
v -0.254406661 0.949459076 6.96642223E-12
v -0.283741951 0.685013533 0.0717765093
v -0.329534709 0.570771098 0.0828803703
v -0.331847697 0.801151097 0.0414401852
v -0.376159638 0.908129573 6.96642223E-12
v -0.370726526 0.642117441 0.0717765093
v -0.401216149 0.522875071 0.0828803703
v -0.433579743 0.750982463 0.0414401852
v -0.491476059 0.851261854 6.96642223E-12
v -0.451368153 0.588234425 0.0717765093
v -0.466032684 0.466032445 0.0828803703
v -0.527893364 0.687964022 0.0414401852
v -0.598383486 0.779828608 6.96642223E-12
v -0.524286807 0.524286509 0.0717765093
v -0.522875071 0.401216149 0.0828803703
v -0.613174677 0.613174379 0.0414401852
v -0.695052445 0.695052147 6.96642223E-12
v -0.588234425 0.451368153 0.0717765093
v -0.570770919 0.329534948 0.0828803703
v -0.687964022 0.527893424 0.0414401852
v -0.779828608 0.598383486 6.96642223E-12
v -0.642117321 0.370726794 0.0717765093
v -0.608900905 0.252215058 0.0828803703
v -0.750982225 0.433580071 0.0414401852
v -0.851261616 0.491476417 6.96642223E-12
v -0.685013533 0.283741921 0.0717765093
v -0.636612356 0.170579687 0.0828803703
v -0.801151097 0.331847727 0.0414401852
v -0.908129573 0.376159638 6.96642223E-12
v -0.716188908 0.191902146 0.0717765093
v -0.653431118 0.0860259384 0.0828803703
v -0.837612092 0.224437356 0.0414401852
v -0.949459076 0.254406661 6.96642223E-12
v -0.735110044 0.0967791751 0.0717765093
v -0.659069598 5.9734468E-08 0.0828803703
v -0.859741032 0.113187186 0.0414401852
v -0.974542975 0.128301159 6.96642223E-12
v -0.74145329 6.69366784E-08 0.0717765093
v -0.653431118 -0.0860259235 0.0828803703
v -0.867159724 7.91612464E-08 0.0414401852
v -0.982952416 8.79846951E-08 6.96642223E-12
v -0.735110044 -0.0967791602 0.0717765093
v -0.636612356 -0.170579687 0.0828803703
v -0.859741032 -0.113187172 0.0414401852
v -0.974542975 -0.128301159 6.96642223E-12
v -0.716188908 -0.191902146 0.0717765093
v -0.608901024 -0.252214789 0.0828803703
v -0.837612092 -0.224437356 0.0414401852
v -0.949459076 -0.254406661 6.96642223E-12
v -0.685013652 -0.283741623 0.0717765093
v -0.570771098 -0.32953468 0.0828803703
v -0.801151276 -0.33184734 0.0414401852
v -0.908129752 -0.376159251 6.96642223E-12
v -0.642117441 -0.370726526 0.0717765093
v -0.522875071 -0.401216149 0.0828803703
v -0.750982463 -0.433579713 0.0414401852
v -0.851261854 -0.49147597 6.96642223E-12
v -0.588234425 -0.451368153 0.0717765093
v -0.466032684 -0.466032445 0.0828803703
v -0.687964022 -0.527893424 0.0414401852
v -0.779828608 -0.598383486 6.96642223E-12
v -0.524286807 -0.524286509 0.0717765093
v -0.401216418 -0.522874832 0.0828803703
v -0.613174677 -0.613174379 0.0414401852
v -0.695052445 -0.695052147 6.96642223E-12
v -0.451368481 -0.588234246 0.0717765093
v -0.329534709 -0.570771098 0.0828803703
v -0.527893782 -0.687963784 0.0414401852
v -0.598383904 -0.77982825 6.96642223E-12
v -0.370726526 -0.642117441 0.0717765093
v -0.252215058 -0.608900905 0.0828803703
v -0.433579743 -0.750982463 0.0414401852
v -0.491476059 -0.851261854 6.96642223E-12
v -0.283741951 -0.685013533 0.0717765093
v -0.170579985 -0.636612296 0.0828803703
v -0.331847697 -0.801151097 0.0414401852
v -0.376159638 -0.908129573 6.96642223E-12
v -0.191902474 -0.716188848 0.0717765093
v -0.0860262439 -0.653431118 0.0828803703
v -0.224437743 -0.837611854 0.0414401852
v -0.254407108 -0.949459016 6.96642223E-12
v -0.0967795253 -0.735110044 0.0717765093
v 4.95164478E-08 -0.659069598 0.0828803703
v -0.113187581 -0.859741032 0.0414401852
v -0.12830162 -0.974542975 6.96642223E-12
v 5.57362476E-08 -0.74145329 0.0717765093
v 0.0860257223 -0.653431177 0.0828803703
v 7.24363716E-08 -0.867159724 0.0414401852
v 8.11798699E-08 -0.982952416 6.96642223E-12
v 0.0967789441 -0.735110104 0.0717765093
v 0.170579463 -0.636612415 0.0828803703
v 0.113186903 -0.859741092 0.0414401852
v 0.128300861 -0.974543035 6.96642223E-12
v 0.191901907 -0.716188967 0.0717765093
v 0.252215177 -0.608900845 0.0828803703
v 0.224437088 -0.837612092 0.0414401852
v 0.254406363 -0.949459195 6.96642223E-12
v 0.28374207 -0.685013413 0.0717765093
v 0.329534769 -0.570771039 0.0828803703
v 0.331847906 -0.801151037 0.0414401852
v 0.376159817 -0.908129513 6.96642223E-12
v 0.370726615 -0.642117441 0.0717765093
v 0.401216 -0.52287519 0.0828803703
v 0.433579832 -0.750982404 0.0414401852
v 0.491476178 -0.851261735 6.96642223E-12
v 0.451368004 -0.588234544 0.0717765093
v 0.466032326 -0.466032863 0.0828803703
v 0.527893186 -0.687964261 0.0414401852
v 0.598383248 -0.779828668 6.96642223E-12
v 0.524286389 -0.524286926 0.0717765093
v 0.52287513 -0.40121606 0.0828803703
v 0.61317426 -0.613174915 0.0414401852
v 0.695051968 -0.695052683 6.96642223E-12
v 0.588234544 -0.451368093 0.0717765093
v 0.570770979 -0.329534888 0.0828803703
v 0.687964201 -0.527893305 0.0414401852
v 0.779828608 -0.598383307 6.96642223E-12
v 0.642117321 -0.370726734 0.0717765093
v 0.608900785 -0.252215266 0.0828803703
v 0.750982344 -0.433579952 0.0414401852
v 0.851261675 -0.491476297 6.96642223E-12
v 0.685013413 -0.28374216 0.0717765093
v 0.636612356 -0.170579582 0.0828803703
v 0.801151037 -0.331847966 0.0414401852
v 0.908129513 -0.376159966 6.96642223E-12
v 0.716188908 -0.191902041 0.0717765093
v 0.653431177 -0.0860258266 0.0828803703
v 0.837612092 -0.224437222 0.0414401852
v 0.949459076 -0.254406512 6.96642223E-12
v 0.735110104 -0.0967790559 0.0717765093
v 0.659069598 2.11677476E-09 0.0828803703
v 0.74145329 2.11677476E-09 0.0717765093
v 0.859741092 -0.11318703 0.0414401852
v 0.974543035 -0.12830101 6.96642223E-12
v 0.867159724 3.35174555E-09 0.0414401852
v 0.982952416 2.05227968E-09 6.96642223E-12
v 0.867159724 3.35174555E-09 -0.0414401852
v 0.982952416 2.05227968E-09 6.96642223E-12
v 0.974543035 0.12830101 6.96642223E-12
v 0.859741092 0.113187045 -0.0414401852
v 0.74145329 2.11677476E-09 -0.0717765093
v 0.949459016 0.25440672 6.96642223E-12
v 0.735110104 0.0967790708 -0.0717765093
v 0.659069598 2.11677476E-09 -0.0828803703
v 0.653431177 0.0860258415 -0.0828803703
v 0.837612033 0.224437416 -0.0414401852
v 0.908129573 0.376159489 6.96642223E-12
v 0.716188908 0.191902205 -0.0717765093
v 0.636612356 0.170579717 -0.0828803703
v 0.801151156 0.331847608 -0.0414401852
v 0.851261675 0.491476297 6.96642223E-12
v 0.685013533 0.283741832 -0.0717765093
v 0.608900905 0.252214968 -0.0828803703
v 0.750982344 0.433579952 -0.0414401852
v 0.779828608 0.598383367 6.96642223E-12
v 0.642117321 0.370726734 -0.0717765093
v 0.570770979 0.329534888 -0.0828803703
v 0.687964201 0.527893305 -0.0414401852
v 0.695052207 0.695052385 6.96642223E-12
v 0.588234544 0.451368093 -0.0717765093
v 0.52287513 0.40121606 -0.0828803703
v 0.613174498 0.613174558 -0.0414401852
v 0.598383605 0.779828429 6.96642223E-12
v 0.524286568 0.524286687 -0.0717765093
v 0.466032535 0.466032624 -0.0828803703
v 0.527893543 0.687963963 -0.0414401852
v 0.491476178 0.851261735 6.96642223E-12
v 0.451368272 0.588234365 -0.0717765093
v 0.401216239 0.522874951 -0.0828803703
v 0.433579832 0.750982404 -0.0414401852
v 0.376159817 0.908129513 6.96642223E-12
v 0.370726615 0.642117441 -0.0717765093
v 0.329534769 0.570771039 -0.0828803703
v 0.331847906 0.801151037 -0.0414401852
v 0.25440681 0.949459016 6.96642223E-12
v 0.28374207 0.685013413 -0.0717765093
v 0.252215177 0.608900845 -0.0828803703
v 0.224437475 0.837612033 -0.0414401852
v 0.128300861 0.974543035 6.96642223E-12
v 0.191902265 0.716188908 -0.0717765093
v 0.170579776 0.636612356 -0.0828803703
v 0.113186903 0.859741092 -0.0414401852
v 8.11798699E-08 0.982952416 6.96642223E-12
v 0.0967789441 0.735110104 -0.0717765093
v 0.0860257223 0.653431177 -0.0828803703
v 7.24363716E-08 0.867159724 -0.0414401852
v -0.128301159 0.974542975 6.96642223E-12
v 5.57362476E-08 0.74145329 -0.0717765093
v 4.95164478E-08 0.659069598 -0.0828803703
v -0.113187179 0.859741032 -0.0414401852
v -0.254406661 0.949459076 6.96642223E-12
v -0.0967791751 0.735110044 -0.0717765093
v -0.0860259384 0.653431118 -0.0828803703
v -0.224437356 0.837612092 -0.0414401852
v -0.376159638 0.908129573 6.96642223E-12
v -0.191902146 0.716188908 -0.0717765093
v -0.170579687 0.636612356 -0.0828803703
v -0.331847697 0.801151097 -0.0414401852
v -0.491476059 0.851261854 6.96642223E-12
v -0.283741951 0.685013533 -0.0717765093
v -0.252215058 0.608900905 -0.0828803703
v -0.433579743 0.750982463 -0.0414401852
v -0.598383486 0.779828608 6.96642223E-12
v -0.370726526 0.642117441 -0.0717765093
v -0.329534709 0.570771098 -0.0828803703
v -0.527893364 0.687964022 -0.0414401852
v -0.695052445 0.695052147 6.96642223E-12
v -0.451368153 0.588234425 -0.0717765093
v -0.401216149 0.522875071 -0.0828803703
v -0.613174677 0.613174379 -0.0414401852
v -0.779828608 0.598383486 6.96642223E-12
v -0.524286807 0.524286509 -0.0717765093
v -0.466032684 0.466032445 -0.0828803703
v -0.687964022 0.527893424 -0.0414401852
v -0.851261616 0.491476417 6.96642223E-12
v -0.588234425 0.451368153 -0.0717765093
v -0.522875071 0.401216149 -0.0828803703
v -0.750982225 0.433580071 -0.0414401852
v -0.908129573 0.376159638 6.96642223E-12
v -0.642117321 0.370726794 -0.0717765093
v -0.570770919 0.329534948 -0.0828803703
v -0.801151097 0.331847727 -0.0414401852
v -0.949459076 0.254406661 6.96642223E-12
v -0.685013533 0.283741921 -0.0717765093
v -0.608900905 0.252215058 -0.0828803703
v -0.837612092 0.224437356 -0.0414401852
v -0.974542975 0.128301159 6.96642223E-12
v -0.716188908 0.191902146 -0.0717765093
v -0.636612356 0.170579687 -0.0828803703
v -0.859741032 0.113187186 -0.0414401852
v -0.982952416 8.79846951E-08 6.96642223E-12
v -0.735110044 0.0967791751 -0.0717765093
v -0.653431118 0.0860259384 -0.0828803703
v -0.867159724 7.91612464E-08 -0.0414401852
v -0.974542975 -0.128301159 6.96642223E-12
v -0.74145329 6.69366784E-08 -0.0717765093
v -0.659069598 5.9734468E-08 -0.0828803703
v -0.859741032 -0.113187172 -0.0414401852
v -0.949459076 -0.254406661 6.96642223E-12
v -0.735110044 -0.0967791602 -0.0717765093
v -0.653431118 -0.0860259235 -0.0828803703
v -0.837612092 -0.224437356 -0.0414401852
v -0.908129752 -0.376159251 6.96642223E-12
v -0.716188908 -0.191902146 -0.0717765093
v -0.636612356 -0.170579687 -0.0828803703
v -0.801151276 -0.33184734 -0.0414401852
v -0.851261854 -0.49147597 6.96642223E-12
v -0.685013652 -0.283741623 -0.0717765093
v -0.608901024 -0.252214789 -0.0828803703
v -0.750982463 -0.433579713 -0.0414401852
v -0.779828608 -0.598383486 6.96642223E-12
v -0.642117441 -0.370726526 -0.0717765093
v -0.570771098 -0.32953468 -0.0828803703
v -0.687964022 -0.527893424 -0.0414401852
v -0.695052445 -0.695052147 6.96642223E-12
v -0.588234425 -0.451368153 -0.0717765093
v -0.522875071 -0.401216149 -0.0828803703
v -0.613174677 -0.613174379 -0.0414401852
v -0.598383904 -0.77982825 6.96642223E-12
v -0.524286807 -0.524286509 -0.0717765093
v -0.466032684 -0.466032445 -0.0828803703
v -0.527893782 -0.687963784 -0.0414401852
v -0.491476059 -0.851261854 6.96642223E-12
v -0.451368481 -0.588234246 -0.0717765093
v -0.401216418 -0.522874832 -0.0828803703
v -0.433579743 -0.750982463 -0.0414401852
v -0.376159638 -0.908129573 6.96642223E-12
v -0.370726526 -0.642117441 -0.0717765093
v -0.329534709 -0.570771098 -0.0828803703
v -0.331847697 -0.801151097 -0.0414401852
v -0.254407108 -0.949459016 6.96642223E-12
v -0.283741951 -0.685013533 -0.0717765093
v -0.252215058 -0.608900905 -0.0828803703
v -0.224437743 -0.837611854 -0.0414401852
v -0.12830162 -0.974542975 6.96642223E-12
v -0.191902474 -0.716188848 -0.0717765093
v -0.170579985 -0.636612296 -0.0828803703
v -0.113187581 -0.859741032 -0.0414401852
v 8.11798699E-08 -0.982952416 6.96642223E-12
v -0.0967795253 -0.735110044 -0.0717765093
v -0.0860262439 -0.653431118 -0.0828803703
v 7.24363716E-08 -0.867159724 -0.0414401852
v 0.128300861 -0.974543035 6.96642223E-12
v 5.57362476E-08 -0.74145329 -0.0717765093
v 4.95164478E-08 -0.659069598 -0.0828803703
v 0.113186903 -0.859741092 -0.0414401852
v 0.254406363 -0.949459195 6.96642223E-12
v 0.0967789441 -0.735110104 -0.0717765093
v 0.0860257223 -0.653431177 -0.0828803703
v 0.224437088 -0.837612092 -0.0414401852
v 0.376159817 -0.908129513 6.96642223E-12
v 0.191901907 -0.716188967 -0.0717765093
v 0.170579463 -0.636612415 -0.0828803703
v 0.331847906 -0.801151037 -0.0414401852
v 0.491476178 -0.851261735 6.96642223E-12
v 0.28374207 -0.685013413 -0.0717765093
v 0.252215177 -0.608900845 -0.0828803703
v 0.433579832 -0.750982404 -0.0414401852
v 0.598383248 -0.779828668 6.96642223E-12
v 0.370726615 -0.642117441 -0.0717765093
v 0.329534769 -0.570771039 -0.0828803703
v 0.527893186 -0.687964261 -0.0414401852
v 0.695051968 -0.695052683 6.96642223E-12
v 0.451368004 -0.588234544 -0.0717765093
v 0.401216 -0.52287519 -0.0828803703
v 0.61317426 -0.613174915 -0.0414401852
v 0.779828608 -0.598383307 6.96642223E-12
v 0.524286389 -0.524286926 -0.0717765093
v 0.466032326 -0.466032863 -0.0828803703
v 0.687964201 -0.527893305 -0.0414401852
v 0.851261675 -0.491476297 6.96642223E-12
v 0.588234544 -0.451368093 -0.0717765093
v 0.52287513 -0.40121606 -0.0828803703
v 0.750982344 -0.433579952 -0.0414401852
v 0.908129513 -0.376159966 6.96642223E-12
v 0.642117321 -0.370726734 -0.0717765093
v 0.570770979 -0.329534888 -0.0828803703
v 0.801151037 -0.331847966 -0.0414401852
v 0.949459076 -0.254406512 6.96642223E-12
v 0.685013413 -0.28374216 -0.0717765093
v 0.608900785 -0.252215266 -0.0828803703
v 0.837612092 -0.224437222 -0.0414401852
v 0.974543035 -0.12830101 6.96642223E-12
v 0.716188908 -0.191902041 -0.0717765093
v 0.636612356 -0.170579582 -0.0828803703
v 0.859741092 -0.11318703 -0.0414401852
v 0.982952416 2.05227968E-09 6.96642223E-12
v 0.867159724 3.35174555E-09 -0.0414401852
v 0.735110104 -0.0967790559 -0.0717765093
v 0.653431177 -0.0860258266 -0.0828803703
v 0.74145329 2.11677476E-09 -0.0717765093
v 0.659069598 2.11677476E-09 -0.0828803703
vt 0.00255277753 0.872012317
vt 0.00255277753 0.994584143
vt 0.0232796967 0.994584143
vt 0.0232796967 0.872012317
vt 0.00255277753 0.681338549
vt 0.0440066457 0.994584143
vt 0.0232796967 0.681338549
vt 0.00255277753 0.499999702
vt 0.0232796967 0.499999702
vt 0.0440066457 0.872012317
vt 0.0647335947 0.994584143
vt 0.0440066457 0.681338549
vt 0.0440066457 0.499999702
vt 0.0647335947 0.872012317
vt 0.0854605734 0.994584143
vt 0.0647335947 0.681338549
vt 0.0647335947 0.499999702
vt 0.0854605734 0.872012317
vt 0.106187463 0.994584143
vt 0.0854605734 0.681338549
vt 0.0854605734 0.499999702
vt 0.106187463 0.872012317
vt 0.126914471 0.994584143
vt 0.106187463 0.681338549
vt 0.106187463 0.499999702
vt 0.126914471 0.872012317
vt 0.147641361 0.994584143
vt 0.126914471 0.681338549
vt 0.126914471 0.499999702
vt 0.147641361 0.872012317
vt 0.16836834 0.994584143
vt 0.147641361 0.681338549
vt 0.147641361 0.499999702
vt 0.16836834 0.872012317
vt 0.189095229 0.994584143
vt 0.16836834 0.681338549
vt 0.16836834 0.499999702
vt 0.189095229 0.872012317
vt 0.209822208 0.994584143
vt 0.189095229 0.681338549
vt 0.189095229 0.499999702
vt 0.209822208 0.872012317
vt 0.230549186 0.994584143
vt 0.209822208 0.681338549
vt 0.209822208 0.499999702
vt 0.230549186 0.872012317
vt 0.251276076 0.994584143
vt 0.230549186 0.681338549
vt 0.230549186 0.499999702
vt 0.251276076 0.872012317
vt 0.272003055 0.994584143
vt 0.251276076 0.681338549
vt 0.251276076 0.499999702
vt 0.272003055 0.872012317
vt 0.292729944 0.994584143
vt 0.272003055 0.681338549
vt 0.272003055 0.499999702
vt 0.292729944 0.872012317
vt 0.313456923 0.994584143
vt 0.292729944 0.681338549
vt 0.292729944 0.499999702
vt 0.313456923 0.872012317
vt 0.334183812 0.994584143
vt 0.313456923 0.681338549
vt 0.313456923 0.499999702
vt 0.334183812 0.872012317
vt 0.354910791 0.994584143
vt 0.334183812 0.681338549
vt 0.334183812 0.499999702
vt 0.354910791 0.872012317
vt 0.37563777 0.994584143
vt 0.354910791 0.681338549
vt 0.354910791 0.499999702
vt 0.37563777 0.872012317
vt 0.396364629 0.994584143
vt 0.37563777 0.681338549
vt 0.37563777 0.499999702
vt 0.396364629 0.872012317
vt 0.417091489 0.994584143
vt 0.396364629 0.681338549
vt 0.396364629 0.499999702
vt 0.417091489 0.872012317
vt 0.437818438 0.994584143
vt 0.417091489 0.681338549
vt 0.417091489 0.499999702
vt 0.437818438 0.872012317
vt 0.458545387 0.994584143
vt 0.437818438 0.681338549
vt 0.437818438 0.499999702
vt 0.458545387 0.872012317
vt 0.479272246 0.994584143
vt 0.458545387 0.681338549
vt 0.458545387 0.499999702
vt 0.479272246 0.872012317
vt 0.499999166 0.994584143
vt 0.479272246 0.681338549
vt 0.479272246 0.499999702
vt 0.499999166 0.872012317
vt 0.520726204 0.994584143
vt 0.499999166 0.681338549
vt 0.499999166 0.499999702
vt 0.520726204 0.872012317
vt 0.541453063 0.994584143
vt 0.520726204 0.681338549
vt 0.520726204 0.499999702
vt 0.541453063 0.872012317
vt 0.562179983 0.994584143
vt 0.541453063 0.681338549
vt 0.541453063 0.499999702
vt 0.562179983 0.872012317
vt 0.582906902 0.994584143
vt 0.562179983 0.681338549
vt 0.562179983 0.499999702
vt 0.582906902 0.872012317
vt 0.60363394 0.994584143
vt 0.582906902 0.681338549
vt 0.582906902 0.499999702
vt 0.60363394 0.872012317
vt 0.6243608 0.994584143
vt 0.60363394 0.681338549
vt 0.60363394 0.499999702
vt 0.6243608 0.872012317
vt 0.645087719 0.994584143
vt 0.6243608 0.681338549
vt 0.6243608 0.499999702
vt 0.645087719 0.872012317
vt 0.665814757 0.994584143
vt 0.645087719 0.681338549
vt 0.645087719 0.499999702
vt 0.665814757 0.872012317
vt 0.686541796 0.994584143
vt 0.665814757 0.681338549
vt 0.665814757 0.499999702
vt 0.686541796 0.872012317
vt 0.707268715 0.994584143
vt 0.686541796 0.681338549
vt 0.686541796 0.499999702
vt 0.707268715 0.872012317
vt 0.727995694 0.994584143
vt 0.707268715 0.681338549
vt 0.707268715 0.499999702
vt 0.727995694 0.872012317
vt 0.748722732 0.994584143
vt 0.727995694 0.681338549
vt 0.727995694 0.499999702
vt 0.748722732 0.872012317
vt 0.76944977 0.994584143
vt 0.748722732 0.681338549
vt 0.748722732 0.499999702
vt 0.76944977 0.872012317
vt 0.79017663 0.994584143
vt 0.76944977 0.681338549
vt 0.76944977 0.499999702
vt 0.79017663 0.872012317
vt 0.810903788 0.994584143
vt 0.79017663 0.681338549
vt 0.79017663 0.499999702
vt 0.810903788 0.872012317
vt 0.831630826 0.994584143
vt 0.810903788 0.681338549
vt 0.810903788 0.499999702
vt 0.831630826 0.872012317
vt 0.852357745 0.994584143
vt 0.831630826 0.681338549
vt 0.831630826 0.499999702
vt 0.852357745 0.872012317
vt 0.873084784 0.994584143
vt 0.852357745 0.681338549
vt 0.852357745 0.499999702
vt 0.873084784 0.872012317
vt 0.893811822 0.994584143
vt 0.873084784 0.681338549
vt 0.873084784 0.499999702
vt 0.893811822 0.872012317
vt 0.914538741 0.994584143
vt 0.893811822 0.681338549
vt 0.893811822 0.499999702
vt 0.914538741 0.872012317
vt 0.93526566 0.994584143
vt 0.914538741 0.681338549
vt 0.914538741 0.499999702
vt 0.93526566 0.872012317
vt 0.955992639 0.994584143
vt 0.93526566 0.681338549
vt 0.93526566 0.499999702
vt 0.955992639 0.872012317
vt 0.976719558 0.994584143
vt 0.955992639 0.681338549
vt 0.955992639 0.499999702
vt 0.976719558 0.872012317
vt 0.997446537 0.994584143
vt 0.997446537 0.872012317
vt 0.976719558 0.681338549
vt 0.976719558 0.499999702
vt 0.997446537 0.681338549
vt 0.997446537 0.499999702
vt 0.00255277753 0.318660617
vt 0.00255277753 0.499999702
vt 0.0232796967 0.499999702
vt 0.0232796967 0.318660617
vt 0.00255277753 0.127987355
vt 0.0440066457 0.499999702
vt 0.0232796967 0.127987355
vt 0.00255277753 0.00541526079
vt 0.0232796967 0.00541526079
vt 0.0440066457 0.318660617
vt 0.0647335947 0.499999702
vt 0.0440066457 0.127987355
vt 0.0440066457 0.00541526079
vt 0.0647335947 0.318660617
vt 0.0854605734 0.499999702
vt 0.0647335947 0.127987355
vt 0.0647335947 0.00541526079
vt 0.0854605734 0.318660617
vt 0.106187463 0.499999702
vt 0.0854605734 0.127987355
vt 0.0854605734 0.00541526079
vt 0.106187463 0.318660617
vt 0.126914471 0.499999702
vt 0.106187463 0.127987355
vt 0.106187463 0.00541526079
vt 0.126914471 0.318660617
vt 0.147641361 0.499999702
vt 0.126914471 0.127987355
vt 0.126914471 0.00541526079
vt 0.147641361 0.318660617
vt 0.16836834 0.499999702
vt 0.147641361 0.127987355
vt 0.147641361 0.00541526079
vt 0.16836834 0.318660617
vt 0.189095229 0.499999702
vt 0.16836834 0.127987355
vt 0.16836834 0.00541526079
vt 0.189095229 0.318660617
vt 0.209822208 0.499999702
vt 0.189095229 0.127987355
vt 0.189095229 0.00541526079
vt 0.209822208 0.318660617
vt 0.230549186 0.499999702
vt 0.209822208 0.127987355
vt 0.209822208 0.00541526079
vt 0.230549186 0.318660617
vt 0.251276076 0.499999702
vt 0.230549186 0.127987355
vt 0.230549186 0.00541526079
vt 0.251276076 0.318660617
vt 0.272003055 0.499999702
vt 0.251276076 0.127987355
vt 0.251276076 0.00541526079
vt 0.272003055 0.318660617
vt 0.292729944 0.499999702
vt 0.272003055 0.127987355
vt 0.272003055 0.00541526079
vt 0.292729944 0.318660617
vt 0.313456923 0.499999702
vt 0.292729944 0.127987355
vt 0.292729944 0.00541526079
vt 0.313456923 0.318660617
vt 0.334183812 0.499999702
vt 0.313456923 0.127987355
vt 0.313456923 0.00541526079
vt 0.334183812 0.318660617
vt 0.354910791 0.499999702
vt 0.334183812 0.127987355
vt 0.334183812 0.00541526079
vt 0.354910791 0.318660617
vt 0.37563777 0.499999702
vt 0.354910791 0.127987355
vt 0.354910791 0.00541526079
vt 0.37563777 0.318660617
vt 0.396364629 0.499999702
vt 0.37563777 0.127987355
vt 0.37563777 0.00541526079
vt 0.396364629 0.318660617
vt 0.417091489 0.499999702
vt 0.396364629 0.127987355
vt 0.396364629 0.00541526079
vt 0.417091489 0.318660617
vt 0.437818438 0.499999702
vt 0.417091489 0.127987355
vt 0.417091489 0.00541526079
vt 0.437818438 0.318660617
vt 0.458545387 0.499999702
vt 0.437818438 0.127987355
vt 0.437818438 0.00541526079
vt 0.458545387 0.318660617
vt 0.479272246 0.499999702
vt 0.458545387 0.127987355
vt 0.458545387 0.00541526079
vt 0.479272246 0.318660617
vt 0.499999166 0.499999702
vt 0.479272246 0.127987355
vt 0.479272246 0.00541526079
vt 0.499999166 0.318660617
vt 0.520726204 0.499999702
vt 0.499999166 0.127987355
vt 0.499999166 0.00541526079
vt 0.520726204 0.318660617
vt 0.541453063 0.499999702
vt 0.520726204 0.127987355
vt 0.520726204 0.00541526079
vt 0.541453063 0.318660617
vt 0.562179983 0.499999702
vt 0.541453063 0.127987355
vt 0.541453063 0.00541526079
vt 0.562179983 0.318660617
vt 0.582906902 0.499999702
vt 0.562179983 0.127987355
vt 0.562179983 0.00541526079
vt 0.582906902 0.318660617
vt 0.60363394 0.499999702
vt 0.582906902 0.127987355
vt 0.582906902 0.00541526079
vt 0.60363394 0.318660617
vt 0.6243608 0.499999702
vt 0.60363394 0.127987355
vt 0.60363394 0.00541526079
vt 0.6243608 0.318660617
vt 0.645087719 0.499999702
vt 0.6243608 0.127987355
vt 0.6243608 0.00541526079
vt 0.645087719 0.318660617
vt 0.665814757 0.499999702
vt 0.645087719 0.127987355
vt 0.645087719 0.00541526079
vt 0.665814757 0.318660617
vt 0.686541796 0.499999702
vt 0.665814757 0.127987355
vt 0.665814757 0.00541526079
vt 0.686541796 0.318660617
vt 0.707268715 0.499999702
vt 0.686541796 0.127987355
vt 0.686541796 0.00541526079
vt 0.707268715 0.318660617
vt 0.727995694 0.499999702
vt 0.707268715 0.127987355
vt 0.707268715 0.00541526079
vt 0.727995694 0.318660617
vt 0.748722732 0.499999702
vt 0.727995694 0.127987355
vt 0.727995694 0.00541526079
vt 0.748722732 0.318660617
vt 0.76944977 0.499999702
vt 0.748722732 0.127987355
vt 0.748722732 0.00541526079
vt 0.76944977 0.318660617
vt 0.79017663 0.499999702
vt 0.76944977 0.127987355
vt 0.76944977 0.00541526079
vt 0.79017663 0.318660617
vt 0.810903788 0.499999702
vt 0.79017663 0.127987355
vt 0.79017663 0.00541526079
vt 0.810903788 0.318660617
vt 0.831630826 0.499999702
vt 0.810903788 0.127987355
vt 0.810903788 0.00541526079
vt 0.831630826 0.318660617
vt 0.852357745 0.499999702
vt 0.831630826 0.127987355
vt 0.831630826 0.00541526079
vt 0.852357745 0.318660617
vt 0.873084784 0.499999702
vt 0.852357745 0.127987355
vt 0.852357745 0.00541526079
vt 0.873084784 0.318660617
vt 0.893811822 0.499999702
vt 0.873084784 0.127987355
vt 0.873084784 0.00541526079
vt 0.893811822 0.318660617
vt 0.914538741 0.499999702
vt 0.893811822 0.127987355
vt 0.893811822 0.00541526079
vt 0.914538741 0.318660617
vt 0.93526566 0.499999702
vt 0.914538741 0.127987355
vt 0.914538741 0.00541526079
vt 0.93526566 0.318660617
vt 0.955992639 0.499999702
vt 0.93526566 0.127987355
vt 0.93526566 0.00541526079
vt 0.955992639 0.318660617
vt 0.976719558 0.499999702
vt 0.955992639 0.127987355
vt 0.955992639 0.00541526079
vt 0.976719558 0.318660617
vt 0.997446537 0.499999702
vt 0.997446537 0.318660617
vt 0.976719558 0.127987355
vt 0.976719558 0.00541526079
vt 0.997446537 0.127987355
vt 0.997446537 0.00541526079
vn 0.200460613 0 0.979701757
vn 0.133574426 0 0.99103874
vn 0.132431656 0.0174349472 0.99103874
vn 0.198745638 0.0261653326 0.979701757
vn 0.290512294 0 0.956871271
vn 0.129022971 0.0345716216 0.99103874
vn 0.288026959 0.0379194692 0.956871271
vn 0.336954117 0 0.941521049
vn 0.334071577 0.0439813845 0.941521049
vn 0.19363004 0.0518830456 0.979701757
vn 0.123406686 0.0511167273 0.99103874
vn 0.280613422 0.0751901567 0.956871271
vn 0.325472921 0.0872102082 0.941520929
vn 0.185201421 0.0767129511 0.979701757
vn 0.115678892 0.0667871982 0.99103874
vn 0.268398404 0.111174218 0.956871271
vn 0.311305195 0.128946766 0.941521049
vn 0.173603952 0.100230232 0.979701757
vn 0.105971724 0.0813149959 0.99103874
vn 0.251591086 0.145256072 0.956871271
vn 0.29181096 0.168477044 0.941521049
vn 0.15903604 0.122032717 0.979701757
vn 0.0944513828 0.0944513902 0.99103874
vn 0.230478883 0.176852733 0.956871271
vn 0.267323732 0.205124781 0.941521049
vn 0.141747043 0.141747043 0.979701757
vn 0.0813149661 0.105971709 0.99103874
vn 0.205423221 0.205423176 0.956871271
vn 0.238262594 0.238262564 0.941521049
vn 0.122032702 0.159036055 0.979701757
vn 0.0667872503 0.115678817 0.99103874
vn 0.176852688 0.230478853 0.956871271
vn 0.205124691 0.267323732 0.941521049
vn 0.100230321 0.173603922 0.979701757
vn 0.0511167273 0.123406701 0.99103874
vn 0.145256177 0.251590967 0.956871271
vn 0.168477178 0.291810811 0.941521049
vn 0.0767129362 0.185201406 0.979701757
vn 0.0345716327 0.129023001 0.99103874
vn 0.111174226 0.268398345 0.956871271
vn 0.128946751 0.311305106 0.941521049
vn 0.0518830679 0.193630055 0.979701757
vn 0.0174349528 0.132431671 0.99103874
vn 0.0751901269 0.280613393 0.956871271
vn 0.0872101411 0.325472891 0.941521049
vn 0.0261653401 0.198745653 0.979701757
vn -0 0.133574426 0.99103874
vn 0.0379194766 0.288027018 0.956871271
vn 0.0439813919 0.334071606 0.941521049
vn -0 0.200460598 0.979701757
vn -0.0174349491 0.132431671 0.99103874
vn -0 0.290512294 0.956871271
vn -0 0.336954117 0.941521049
vn -0.026165301 0.198745608 0.979701757
vn -0.034571588 0.129022986 0.99103874
vn -0.0379194096 0.288026929 0.956871271
vn -0.04398131 0.334071577 0.941521049
vn -0.0518830009 0.19363004 0.979701757
vn -0.0511167012 0.123406716 0.99103874
vn -0.0751901045 0.280613393 0.956871271
vn -0.087210156 0.325472862 0.941520929
vn -0.0767129362 0.185201466 0.979701757
vn -0.0667872652 0.115678877 0.99103874
vn -0.111174181 0.268398315 0.956871271
vn -0.128946692 0.311305076 0.941521049
vn -0.100230366 0.173603967 0.979701757
vn -0.0813150033 0.105971731 0.99103874
vn -0.145256147 0.251590967 0.956871271
vn -0.168477014 0.291810721 0.941521168
vn -0.122032717 0.159036115 0.979701757
vn -0.0944513902 0.0944513902 0.99103874
vn -0.176852658 0.230478823 0.956871271
vn -0.205124661 0.267323554 0.941521168
vn -0.141747057 0.141747102 0.979701757
vn -0.105971709 0.0813149735 0.99103874
vn -0.205423176 0.205423221 0.956871271
vn -0.238262445 0.238262475 0.941521049
vn -0.159036085 0.122032687 0.979701757
vn -0.115678839 0.0667872429 0.99103874
vn -0.230478838 0.176852643 0.956871271
vn -0.267323643 0.205124602 0.941521168
vn -0.173603952 0.100230344 0.979701757
vn -0.123406671 0.0511167124 0.99103874
vn -0.251590967 0.145256147 0.956871271
vn -0.291810751 0.168476999 0.941521049
vn -0.185201421 0.0767129734 0.979701757
vn -0.129023001 0.0345715918 0.99103874
vn -0.268398315 0.111174271 0.956871271
vn -0.311305046 0.128946811 0.941521049
vn -0.19363001 0.0518830046 0.979701757
vn -0.132431656 0.0174349584 0.99103874
vn -0.280613393 0.0751901194 0.956871271
vn -0.325472921 0.0872101635 0.941520929
vn -0.198745593 0.0261653122 0.979701757
vn -0.133574441 0 0.99103874
vn -0.288026989 0.0379194319 0.956871271
vn -0.334071606 0.0439813472 0.941521049
vn -0.200460643 0 0.979701757
vn -0.132431671 -0.0174349453 0.99103874
vn -0.290512264 0 0.956871271
vn -0.336954117 0 0.941521049
vn -0.198745608 -0.0261652954 0.979701757
vn -0.129023001 -0.034571562 0.99103874
vn -0.288026989 -0.0379193984 0.956871271
vn -0.334071577 -0.04398131 0.941521049
vn -0.19363004 -0.0518829562 0.979701757
vn -0.123406723 -0.0511167198 0.99103874
vn -0.280613393 -0.0751900151 0.956871271
vn -0.325472891 -0.0872100592 0.941520929
vn -0.185201451 -0.0767129511 0.979701757
vn -0.115678899 -0.066787228 0.99103874
vn -0.268398345 -0.111174203 0.956871271
vn -0.311305106 -0.128946751 0.941521049
vn -0.173603982 -0.100230306 0.979701757
vn -0.105971776 -0.0813149661 0.99103874
vn -0.251590967 -0.145256087 0.956871271
vn -0.29181084 -0.168476984 0.941521049
vn -0.159036115 -0.122032657 0.979701757
vn -0.0944513977 -0.0944513455 0.99103874
vn -0.230478898 -0.176852599 0.956871271
vn -0.267323732 -0.205124557 0.941521049
vn -0.141747102 -0.141746983 0.979701757
vn -0.0813149661 -0.105971679 0.99103874
vn -0.205423251 -0.205423102 0.956871271
vn -0.238262624 -0.2382624 0.941521049
vn -0.122032687 -0.159036055 0.979701757
vn -0.0667872727 -0.115678854 0.99103874
vn -0.176852718 -0.230478868 0.956871271
vn -0.205124706 -0.267323613 0.941521049
vn -0.100230344 -0.173603922 0.979701757
vn -0.0511167422 -0.123406686 0.99103874
vn -0.145256206 -0.251590967 0.956871271
vn -0.168477088 -0.291810721 0.941521049
vn -0.0767129734 -0.185201496 0.979701757
vn -0.0345716439 -0.129022956 0.99103874
vn -0.111174203 -0.268398345 0.956871271
vn -0.128946677 -0.311304957 0.941521049
vn -0.051883135 -0.193630084 0.979701757
vn -0.0174349602 -0.132431671 0.99103874
vn -0.0751902461 -0.280613303 0.956871271
vn -0.0872102529 -0.325472623 0.941521049
vn -0.0261653885 -0.198745668 0.979701757
vn -0 -0.133574426 0.99103874
vn -0.0379195325 -0.288026959 0.956871271
vn -0.0439814292 -0.334071428 0.941521049
vn -0 -0.200460583 0.979701757
vn 0.0174349379 -0.132431656 0.99103874
vn -0 -0.290512294 0.956871271
vn -0 -0.336954117 0.941521049
vn 0.0261653196 -0.198745653 0.979701757
vn 0.0345716365 -0.129023001 0.99103874
vn 0.0379194096 -0.288026959 0.956871271
vn 0.0439812914 -0.334071517 0.941521049
vn 0.0518830679 -0.193630084 0.979701757
vn 0.0511166863 -0.123406731 0.99103874
vn 0.0751901194 -0.280613333 0.956871271
vn 0.0872101262 -0.325472802 0.941521049
vn 0.0767128766 -0.185201451 0.979701757
vn 0.066787228 -0.115678869 0.99103874
vn 0.111174151 -0.268398345 0.956871271
vn 0.128946677 -0.311305106 0.941521049
vn 0.100230306 -0.173603982 0.979701757
vn 0.0813149661 -0.105971791 0.99103874
vn 0.145256162 -0.251590997 0.956871271
vn 0.168477118 -0.29181087 0.941521049
vn 0.122032605 -0.1590361 0.979701757
vn 0.0944513828 -0.09445142 0.99103874
vn 0.176852539 -0.230478972 0.956871271
vn 0.205124617 -0.267323911 0.941521049
vn 0.141746998 -0.141747057 0.979701757
vn 0.105971694 -0.0813149959 0.99103874
vn 0.205423191 -0.205423281 0.956871271
vn 0.238262594 -0.238262668 0.941521049
vn 0.15903607 -0.122032702 0.979701757
vn 0.115678877 -0.0667872205 0.99103874
vn 0.230478898 -0.176852733 0.956871271
vn 0.267323792 -0.20512481 0.941520929
vn 0.173603922 -0.100230277 0.979701757
vn 0.123406716 -0.0511166938 0.99103874
vn 0.251590997 -0.145256206 0.956871271
vn 0.2918109 -0.168477222 0.941521049
vn 0.185201451 -0.0767129287 0.979701757
vn 0.129022986 -0.0345716588 0.99103874
vn 0.268398345 -0.111174189 0.956871271
vn 0.311305106 -0.128946736 0.941521049
vn 0.19362998 -0.0518830642 0.979701757
vn 0.132431671 -0.0174349677 0.99103874
vn 0.280613363 -0.0751901418 0.956871271
vn 0.325472862 -0.0872101784 0.941520929
vn 0.198745623 -0.0261653289 0.979701757
vn 0.133574426 0 0.99103874
vn 0.200460613 0 0.979701757
vn 0.288026989 -0.0379194431 0.956871271
vn 0.334071606 -0.043981351 0.941521049
vn 0.290512294 0 0.956871271
vn 0.336954117 0 0.941521049
vn 0.290512323 0 -0.956871271
vn 0.336954117 0 -0.941521049
vn 0.334071577 0.0439813808 -0.941521049
vn 0.288026989 0.0379194692 -0.956871271
vn 0.200460613 0 -0.979701757
vn 0.325472921 0.0872101933 -0.941520929
vn 0.198745623 0.0261653308 -0.979701757
vn 0.133574426 0 -0.99103874
vn 0.132431656 0.0174349472 -0.99103874
vn 0.280613422 0.0751901492 -0.956871271
vn 0.311305195 0.128946766 -0.941521049
vn 0.19363004 0.0518830456 -0.979701757
vn 0.129022971 0.0345716178 -0.99103874
vn 0.268398345 0.111174218 -0.956871271
vn 0.29181093 0.168477044 -0.941521049
vn 0.185201421 0.0767129511 -0.979701757
vn 0.123406686 0.0511167273 -0.99103874
vn 0.251591027 0.145256057 -0.956871271
vn 0.267323703 0.205124781 -0.941521049
vn 0.173603952 0.100230224 -0.979701757
vn 0.115678892 0.0667871907 -0.99103874
vn 0.230478883 0.176852733 -0.956871271
vn 0.238262594 0.238262564 -0.941521049
vn 0.15903604 0.122032717 -0.979701757
vn 0.105971724 0.0813149959 -0.99103874
vn 0.205423191 0.205423146 -0.956871271
vn 0.205124691 0.267323732 -0.941521049
vn 0.141747013 0.141747043 -0.979701757
vn 0.0944513828 0.0944513902 -0.99103874
vn 0.176852673 0.230478853 -0.956871271
vn 0.168477193 0.291810811 -0.941521049
vn 0.122032687 0.15903604 -0.979701757
vn 0.0813149661 0.105971709 -0.99103874
vn 0.145256221 0.251590997 -0.956871271
vn 0.128946766 0.311305106 -0.941521049
vn 0.100230329 0.173603922 -0.979701757
vn 0.0667872354 0.115678817 -0.99103874
vn 0.111174248 0.268398374 -0.956871271
vn 0.0872101635 0.325472891 -0.941521049
vn 0.0767129511 0.185201421 -0.979701757
vn 0.0511167273 0.123406701 -0.99103874
vn 0.0751901343 0.280613422 -0.956871271
vn 0.0439814068 0.334071577 -0.941521049
vn 0.0518830642 0.193630055 -0.979701757
vn 0.034571629 0.129023001 -0.99103874
vn 0.0379194766 0.288026989 -0.956871271
vn -0 0.336954117 -0.941521049
vn 0.0261653252 0.198745623 -0.979701757
vn 0.0174349453 0.132431671 -0.99103874
vn -0 0.290512294 -0.956871271
vn -0.0439813174 0.334071606 -0.941521049
vn -0 0.200460598 -0.979701757
vn -0 0.133574426 -0.99103874
vn -0.0379194096 0.288026959 -0.956871271
vn -0.0872101635 0.325472891 -0.941521049
vn -0.0261653028 0.198745623 -0.979701757
vn -0.0174349509 0.132431671 -0.99103874
vn -0.0751901194 0.280613393 -0.956871271
vn -0.128946677 0.311305046 -0.941521049
vn -0.0518830158 0.19363004 -0.979701757
vn -0.0345715843 0.129023001 -0.99103874
vn -0.111174181 0.268398315 -0.956871271
vn -0.168477029 0.291810691 -0.941521168
vn -0.0767129436 0.185201466 -0.979701757
vn -0.0511167012 0.123406723 -0.99103874
vn -0.145256147 0.251590937 -0.956871271
vn -0.205124661 0.267323583 -0.941521168
vn -0.100230359 0.173603967 -0.979701757
vn -0.0667872727 0.115678892 -0.99103874
vn -0.176852673 0.230478823 -0.956871271
vn -0.238262475 0.238262475 -0.941521049
vn -0.122032732 0.159036115 -0.979701757
vn -0.0813150108 0.105971731 -0.99103874
vn -0.205423191 0.205423221 -0.956871271
vn -0.267323613 0.205124617 -0.941521049
vn -0.141747087 0.141747102 -0.979701757
vn -0.0944513902 0.0944514051 -0.99103874
vn -0.230478838 0.176852643 -0.956871271
vn -0.291810751 0.168477029 -0.941521049
vn -0.159036085 0.122032702 -0.979701757
vn -0.105971709 0.0813149735 -0.99103874
vn -0.251590997 0.145256162 -0.956871271
vn -0.311305016 0.128946811 -0.941521049
vn -0.173603982 0.100230351 -0.979701757
vn -0.115678839 0.0667872429 -0.99103874
vn -0.268398345 0.111174285 -0.956871271
vn -0.325472891 0.0872101635 -0.941520929
vn -0.185201451 0.0767129809 -0.979701757
vn -0.123406671 0.0511167124 -0.99103874
vn -0.280613393 0.0751901194 -0.956871271
vn -0.334071606 0.0439813472 -0.941521049
vn -0.19363001 0.0518830046 -0.979701757
vn -0.129023001 0.0345715918 -0.99103874
vn -0.288026959 0.0379194282 -0.956871271
vn -0.336954117 0 -0.941521049
vn -0.198745623 0.026165314 -0.979701757
vn -0.132431656 0.0174349584 -0.99103874
vn -0.290512294 0 -0.956871271
vn -0.334071577 -0.04398131 -0.941521049
vn -0.200460657 0 -0.979701757
vn -0.133574441 0 -0.99103874
vn -0.288026959 -0.0379194058 -0.956871271
vn -0.325472921 -0.0872100666 -0.941521049
vn -0.198745653 -0.026165301 -0.979701757
vn -0.132431671 -0.0174349453 -0.99103874
vn -0.280613422 -0.07519003 -0.956871271
vn -0.311305076 -0.128946736 -0.941521049
vn -0.19363004 -0.0518829599 -0.979701757
vn -0.129022986 -0.034571562 -0.99103874
vn -0.268398345 -0.111174203 -0.956871271
vn -0.291810811 -0.168476969 -0.941521049
vn -0.185201451 -0.0767129511 -0.979701757
vn -0.123406701 -0.0511167198 -0.99103874
vn -0.251590967 -0.145256087 -0.956871271
vn -0.267323703 -0.205124542 -0.941521049
vn -0.173603997 -0.100230314 -0.979701757
vn -0.115678884 -0.066787228 -0.99103874
vn -0.230478883 -0.176852584 -0.956871271
vn -0.238262564 -0.23826237 -0.941521049
vn -0.159036145 -0.122032657 -0.979701757
vn -0.105971761 -0.0813149661 -0.99103874
vn -0.205423251 -0.205423102 -0.956871271
vn -0.205124706 -0.267323613 -0.941521049
vn -0.141747102 -0.141746983 -0.979701757
vn -0.0944513977 -0.0944513455 -0.99103874
vn -0.176852703 -0.230478823 -0.956871271
vn -0.168477088 -0.291810721 -0.941521049
vn -0.122032702 -0.159036085 -0.979701757
vn -0.0813149586 -0.105971679 -0.99103874
vn -0.145256191 -0.251590997 -0.956871271
vn -0.128946692 -0.311304927 -0.941521168
vn -0.100230336 -0.173603922 -0.979701757
vn -0.0667872727 -0.115678839 -0.99103874
vn -0.111174189 -0.268398345 -0.956871271
vn -0.0872102529 -0.325472564 -0.941521049
vn -0.0767129511 -0.185201466 -0.979701757
vn -0.0511167496 -0.123406686 -0.99103874
vn -0.0751902312 -0.280613333 -0.956871271
vn -0.0439814404 -0.334071398 -0.941521049
vn -0.0518831164 -0.193630099 -0.979701757
vn -0.0345716476 -0.129022971 -0.99103874
vn -0.0379195362 -0.288026959 -0.956871271
vn -0 -0.336954117 -0.941521049
vn -0.0261653848 -0.198745668 -0.979701757
vn -0.0174349546 -0.132431671 -0.99103874
vn -0 -0.290512323 -0.956871271
vn 0.0439813137 -0.334071517 -0.941521049
vn -0 -0.200460598 -0.979701757
vn -0 -0.133574426 -0.99103874
vn 0.0379194207 -0.288026959 -0.956871271
vn 0.0872101039 -0.325472742 -0.941521049
vn 0.0261653196 -0.198745623 -0.979701757
vn 0.0174349397 -0.132431656 -0.99103874
vn 0.075190112 -0.280613303 -0.956871271
vn 0.128946662 -0.311305076 -0.941521049
vn 0.0518830642 -0.193630055 -0.979701757
vn 0.0345716327 -0.129023001 -0.99103874
vn 0.111174151 -0.268398345 -0.956871271
vn 0.168477133 -0.29181087 -0.941521049
vn 0.0767128766 -0.185201451 -0.979701757
vn 0.0511166789 -0.123406731 -0.99103874
vn 0.145256147 -0.251590997 -0.956871271
vn 0.205124661 -0.267323911 -0.941521049
vn 0.100230299 -0.173603997 -0.979701757
vn 0.066787228 -0.115678869 -0.99103874
vn 0.176852584 -0.230478972 -0.956871271
vn 0.238262624 -0.238262668 -0.941521049
vn 0.12203262 -0.1590361 -0.979701757
vn 0.0813149512 -0.105971791 -0.99103874
vn 0.205423176 -0.205423251 -0.956871271
vn 0.267323792 -0.20512481 -0.941520929
vn 0.141746998 -0.141747072 -0.979701757
vn 0.0944513828 -0.0944514275 -0.99103874
vn 0.230478913 -0.176852748 -0.956871271
vn 0.291810781 -0.168477207 -0.941521049
vn 0.159036055 -0.122032702 -0.979701757
vn 0.105971694 -0.0813149959 -0.99103874
vn 0.251590997 -0.145256206 -0.956871271
vn 0.311305046 -0.128946707 -0.941521049
vn 0.173603937 -0.100230291 -0.979701757
vn 0.115678869 -0.0667872205 -0.99103874
vn 0.268398315 -0.111174189 -0.956871271
vn 0.325472891 -0.0872101709 -0.941521049
vn 0.185201436 -0.0767129138 -0.979701757
vn 0.123406716 -0.0511166938 -0.99103874
vn 0.280613363 -0.0751901418 -0.956871271
vn 0.334071606 -0.043981351 -0.941521049
vn 0.193630025 -0.0518830642 -0.979701757
vn 0.129022986 -0.0345716551 -0.99103874
vn 0.288026989 -0.0379194431 -0.956871271
vn 0.336954117 0 -0.941521049
vn 0.290512323 0 -0.956871271
vn 0.198745623 -0.0261653252 -0.979701757
vn 0.132431656 -0.0174349658 -0.99103874
vn 0.200460613 0 -0.979701757
vn 0.133574426 0 -0.99103874
g SlashMesh5_0
f 3/3/3 2/2/2 1/1/1
f 4/4/4 3/3/3 1/1/1
f 4/4/4 1/1/1 5/5/5
f 6/6/6 3/3/3 4/4/4
f 7/7/7 4/4/4 5/5/5
f 7/7/7 5/5/5 8/8/8
f 9/9/9 7/7/7 8/8/8
f 10/10/10 6/6/6 4/4/4
f 10/10/10 4/4/4 7/7/7
f 11/11/11 6/6/6 10/10/10
f 12/12/12 7/7/7 9/9/9
f 12/12/12 10/10/10 7/7/7
f 13/13/13 12/12/12 9/9/9
f 14/14/14 11/11/11 10/10/10
f 14/14/14 10/10/10 12/12/12
f 15/15/15 11/11/11 14/14/14
f 16/16/16 12/12/12 13/13/13
f 16/16/16 14/14/14 12/12/12
f 17/17/17 16/16/16 13/13/13
f 18/18/18 15/15/15 14/14/14
f 18/18/18 14/14/14 16/16/16
f 19/19/19 15/15/15 18/18/18
f 20/20/20 16/16/16 17/17/17
f 20/20/20 18/18/18 16/16/16
f 21/21/21 20/20/20 17/17/17
f 22/22/22 19/19/19 18/18/18
f 22/22/22 18/18/18 20/20/20
f 23/23/23 19/19/19 22/22/22
f 24/24/24 20/20/20 21/21/21
f 24/24/24 22/22/22 20/20/20
f 25/25/25 24/24/24 21/21/21
f 26/26/26 23/23/23 22/22/22
f 26/26/26 22/22/22 24/24/24
f 27/27/27 23/23/23 26/26/26
f 28/28/28 24/24/24 25/25/25
f 28/28/28 26/26/26 24/24/24
f 29/29/29 28/28/28 25/25/25
f 30/30/30 27/27/27 26/26/26
f 30/30/30 26/26/26 28/28/28
f 31/31/31 27/27/27 30/30/30
f 32/32/32 28/28/28 29/29/29
f 32/32/32 30/30/30 28/28/28
f 33/33/33 32/32/32 29/29/29
f 34/34/34 31/31/31 30/30/30
f 34/34/34 30/30/30 32/32/32
f 35/35/35 31/31/31 34/34/34
f 36/36/36 32/32/32 33/33/33
f 36/36/36 34/34/34 32/32/32
f 37/37/37 36/36/36 33/33/33
f 38/38/38 35/35/35 34/34/34
f 38/38/38 34/34/34 36/36/36
f 39/39/39 35/35/35 38/38/38
f 40/40/40 36/36/36 37/37/37
f 40/40/40 38/38/38 36/36/36
f 41/41/41 40/40/40 37/37/37
f 42/42/42 39/39/39 38/38/38
f 42/42/42 38/38/38 40/40/40
f 43/43/43 39/39/39 42/42/42
f 44/44/44 40/40/40 41/41/41
f 44/44/44 42/42/42 40/40/40
f 45/45/45 44/44/44 41/41/41
f 46/46/46 43/43/43 42/42/42
f 46/46/46 42/42/42 44/44/44
f 47/47/47 43/43/43 46/46/46
f 48/48/48 44/44/44 45/45/45
f 48/48/48 46/46/46 44/44/44
f 49/49/49 48/48/48 45/45/45
f 50/50/50 47/47/47 46/46/46
f 50/50/50 46/46/46 48/48/48
f 51/51/51 47/47/47 50/50/50
f 52/52/52 48/48/48 49/49/49
f 52/52/52 50/50/50 48/48/48
f 53/53/53 52/52/52 49/49/49
f 54/54/54 51/51/51 50/50/50
f 54/54/54 50/50/50 52/52/52
f 55/55/55 51/51/51 54/54/54
f 56/56/56 52/52/52 53/53/53
f 56/56/56 54/54/54 52/52/52
f 57/57/57 56/56/56 53/53/53
f 58/58/58 55/55/55 54/54/54
f 58/58/58 54/54/54 56/56/56
f 59/59/59 55/55/55 58/58/58
f 60/60/60 56/56/56 57/57/57
f 60/60/60 58/58/58 56/56/56
f 61/61/61 60/60/60 57/57/57
f 62/62/62 59/59/59 58/58/58
f 62/62/62 58/58/58 60/60/60
f 63/63/63 59/59/59 62/62/62
f 64/64/64 60/60/60 61/61/61
f 64/64/64 62/62/62 60/60/60
f 65/65/65 64/64/64 61/61/61
f 66/66/66 63/63/63 62/62/62
f 66/66/66 62/62/62 64/64/64
f 67/67/67 63/63/63 66/66/66
f 68/68/68 64/64/64 65/65/65
f 68/68/68 66/66/66 64/64/64
f 69/69/69 68/68/68 65/65/65
f 70/70/70 67/67/67 66/66/66
f 70/70/70 66/66/66 68/68/68
f 71/71/71 67/67/67 70/70/70
f 72/72/72 68/68/68 69/69/69
f 72/72/72 70/70/70 68/68/68
f 73/73/73 72/72/72 69/69/69
f 74/74/74 71/71/71 70/70/70
f 74/74/74 70/70/70 72/72/72
f 75/75/75 71/71/71 74/74/74
f 76/76/76 72/72/72 73/73/73
f 76/76/76 74/74/74 72/72/72
f 77/77/77 76/76/76 73/73/73
f 78/78/78 75/75/75 74/74/74
f 78/78/78 74/74/74 76/76/76
f 79/79/79 75/75/75 78/78/78
f 80/80/80 76/76/76 77/77/77
f 80/80/80 78/78/78 76/76/76
f 81/81/81 80/80/80 77/77/77
f 82/82/82 79/79/79 78/78/78
f 82/82/82 78/78/78 80/80/80
f 83/83/83 79/79/79 82/82/82
f 84/84/84 80/80/80 81/81/81
f 84/84/84 82/82/82 80/80/80
f 85/85/85 84/84/84 81/81/81
f 86/86/86 83/83/83 82/82/82
f 86/86/86 82/82/82 84/84/84
f 87/87/87 83/83/83 86/86/86
f 88/88/88 84/84/84 85/85/85
f 88/88/88 86/86/86 84/84/84
f 89/89/89 88/88/88 85/85/85
f 90/90/90 87/87/87 86/86/86
f 90/90/90 86/86/86 88/88/88
f 91/91/91 87/87/87 90/90/90
f 92/92/92 88/88/88 89/89/89
f 92/92/92 90/90/90 88/88/88
f 93/93/93 92/92/92 89/89/89
f 94/94/94 91/91/91 90/90/90
f 94/94/94 90/90/90 92/92/92
f 95/95/95 91/91/91 94/94/94
f 96/96/96 92/92/92 93/93/93
f 96/96/96 94/94/94 92/92/92
f 97/97/97 96/96/96 93/93/93
f 98/98/98 95/95/95 94/94/94
f 98/98/98 94/94/94 96/96/96
f 99/99/99 95/95/95 98/98/98
f 100/100/100 96/96/96 97/97/97
f 100/100/100 98/98/98 96/96/96
f 101/101/101 100/100/100 97/97/97
f 102/102/102 99/99/99 98/98/98
f 102/102/102 98/98/98 100/100/100
f 103/103/103 99/99/99 102/102/102
f 104/104/104 100/100/100 101/101/101
f 104/104/104 102/102/102 100/100/100
f 105/105/105 104/104/104 101/101/101
f 106/106/106 103/103/103 102/102/102
f 106/106/106 102/102/102 104/104/104
f 107/107/107 103/103/103 106/106/106
f 108/108/108 104/104/104 105/105/105
f 108/108/108 106/106/106 104/104/104
f 109/109/109 108/108/108 105/105/105
f 110/110/110 107/107/107 106/106/106
f 110/110/110 106/106/106 108/108/108
f 111/111/111 107/107/107 110/110/110
f 112/112/112 108/108/108 109/109/109
f 112/112/112 110/110/110 108/108/108
f 113/113/113 112/112/112 109/109/109
f 114/114/114 111/111/111 110/110/110
f 114/114/114 110/110/110 112/112/112
f 115/115/115 111/111/111 114/114/114
f 116/116/116 112/112/112 113/113/113
f 116/116/116 114/114/114 112/112/112
f 117/117/117 116/116/116 113/113/113
f 118/118/118 115/115/115 114/114/114
f 118/118/118 114/114/114 116/116/116
f 119/119/119 115/115/115 118/118/118
f 120/120/120 116/116/116 117/117/117
f 120/120/120 118/118/118 116/116/116
f 121/121/121 120/120/120 117/117/117
f 122/122/122 119/119/119 118/118/118
f 122/122/122 118/118/118 120/120/120
f 123/123/123 119/119/119 122/122/122
f 124/124/124 120/120/120 121/121/121
f 124/124/124 122/122/122 120/120/120
f 125/125/125 124/124/124 121/121/121
f 126/126/126 123/123/123 122/122/122
f 126/126/126 122/122/122 124/124/124
f 127/127/127 123/123/123 126/126/126
f 128/128/128 124/124/124 125/125/125
f 128/128/128 126/126/126 124/124/124
f 129/129/129 128/128/128 125/125/125
f 130/130/130 127/127/127 126/126/126
f 130/130/130 126/126/126 128/128/128
f 131/131/131 127/127/127 130/130/130
f 132/132/132 128/128/128 129/129/129
f 132/132/132 130/130/130 128/128/128
f 133/133/133 132/132/132 129/129/129
f 134/134/134 131/131/131 130/130/130
f 134/134/134 130/130/130 132/132/132
f 135/135/135 131/131/131 134/134/134
f 136/136/136 132/132/132 133/133/133
f 136/136/136 134/134/134 132/132/132
f 137/137/137 136/136/136 133/133/133
f 138/138/138 135/135/135 134/134/134
f 138/138/138 134/134/134 136/136/136
f 139/139/139 135/135/135 138/138/138
f 140/140/140 136/136/136 137/137/137
f 140/140/140 138/138/138 136/136/136
f 141/141/141 140/140/140 137/137/137
f 142/142/142 139/139/139 138/138/138
f 142/142/142 138/138/138 140/140/140
f 143/143/143 139/139/139 142/142/142
f 144/144/144 140/140/140 141/141/141
f 144/144/144 142/142/142 140/140/140
f 145/145/145 144/144/144 141/141/141
f 146/146/146 143/143/143 142/142/142
f 146/146/146 142/142/142 144/144/144
f 147/147/147 143/143/143 146/146/146
f 148/148/148 144/144/144 145/145/145
f 148/148/148 146/146/146 144/144/144
f 149/149/149 148/148/148 145/145/145
f 150/150/150 147/147/147 146/146/146
f 150/150/150 146/146/146 148/148/148
f 151/151/151 147/147/147 150/150/150
f 152/152/152 148/148/148 149/149/149
f 152/152/152 150/150/150 148/148/148
f 153/153/153 152/152/152 149/149/149
f 154/154/154 151/151/151 150/150/150
f 154/154/154 150/150/150 152/152/152
f 155/155/155 151/151/151 154/154/154
f 156/156/156 152/152/152 153/153/153
f 156/156/156 154/154/154 152/152/152
f 157/157/157 156/156/156 153/153/153
f 158/158/158 155/155/155 154/154/154
f 158/158/158 154/154/154 156/156/156
f 159/159/159 155/155/155 158/158/158
f 160/160/160 156/156/156 157/157/157
f 160/160/160 158/158/158 156/156/156
f 161/161/161 160/160/160 157/157/157
f 162/162/162 159/159/159 158/158/158
f 162/162/162 158/158/158 160/160/160
f 163/163/163 159/159/159 162/162/162
f 164/164/164 160/160/160 161/161/161
f 164/164/164 162/162/162 160/160/160
f 165/165/165 164/164/164 161/161/161
f 166/166/166 163/163/163 162/162/162
f 166/166/166 162/162/162 164/164/164
f 167/167/167 163/163/163 166/166/166
f 168/168/168 164/164/164 165/165/165
f 168/168/168 166/166/166 164/164/164
f 169/169/169 168/168/168 165/165/165
f 170/170/170 167/167/167 166/166/166
f 170/170/170 166/166/166 168/168/168
f 171/171/171 167/167/167 170/170/170
f 172/172/172 168/168/168 169/169/169
f 172/172/172 170/170/170 168/168/168
f 173/173/173 172/172/172 169/169/169
f 174/174/174 171/171/171 170/170/170
f 174/174/174 170/170/170 172/172/172
f 175/175/175 171/171/171 174/174/174
f 176/176/176 172/172/172 173/173/173
f 176/176/176 174/174/174 172/172/172
f 177/177/177 176/176/176 173/173/173
f 178/178/178 175/175/175 174/174/174
f 178/178/178 174/174/174 176/176/176
f 179/179/179 175/175/175 178/178/178
f 180/180/180 176/176/176 177/177/177
f 180/180/180 178/178/178 176/176/176
f 181/181/181 180/180/180 177/177/177
f 182/182/182 179/179/179 178/178/178
f 182/182/182 178/178/178 180/180/180
f 183/183/183 179/179/179 182/182/182
f 184/184/184 180/180/180 181/181/181
f 184/184/184 182/182/182 180/180/180
f 185/185/185 184/184/184 181/181/181
f 186/186/186 183/183/183 182/182/182
f 186/186/186 182/182/182 184/184/184
f 187/187/187 183/183/183 186/186/186
f 188/188/188 184/184/184 185/185/185
f 188/188/188 186/186/186 184/184/184
f 189/189/189 188/188/188 185/185/185
f 190/190/190 187/187/187 186/186/186
f 190/190/190 186/186/186 188/188/188
f 191/191/191 187/187/187 190/190/190
f 192/192/192 191/191/191 190/190/190
f 193/193/193 188/188/188 189/189/189
f 193/193/193 190/190/190 188/188/188
f 192/192/192 190/190/190 193/193/193
f 194/194/194 193/193/193 189/189/189
f 195/195/195 192/192/192 193/193/193
f 195/195/195 193/193/193 194/194/194
f 196/196/196 195/195/195 194/194/194
f 199/199/199 198/198/198 197/197/197
f 200/200/200 199/199/199 197/197/197
f 200/200/200 197/197/197 201/201/201
f 202/202/202 199/199/199 200/200/200
f 203/203/203 200/200/200 201/201/201
f 203/203/203 201/201/201 204/204/204
f 205/205/205 203/203/203 204/204/204
f 206/206/206 202/202/202 200/200/200
f 206/206/206 200/200/200 203/203/203
f 207/207/207 202/202/202 206/206/206
f 208/208/208 203/203/203 205/205/205
f 208/208/208 206/206/206 203/203/203
f 209/209/209 208/208/208 205/205/205
f 210/210/210 207/207/207 206/206/206
f 210/210/210 206/206/206 208/208/208
f 211/211/211 207/207/207 210/210/210
f 212/212/212 208/208/208 209/209/209
f 212/212/212 210/210/210 208/208/208
f 213/213/213 212/212/212 209/209/209
f 214/214/214 211/211/211 210/210/210
f 214/214/214 210/210/210 212/212/212
f 215/215/215 211/211/211 214/214/214
f 216/216/216 212/212/212 213/213/213
f 216/216/216 214/214/214 212/212/212
f 217/217/217 216/216/216 213/213/213
f 218/218/218 215/215/215 214/214/214
f 218/218/218 214/214/214 216/216/216
f 219/219/219 215/215/215 218/218/218
f 220/220/220 216/216/216 217/217/217
f 220/220/220 218/218/218 216/216/216
f 221/221/221 220/220/220 217/217/217
f 222/222/222 219/219/219 218/218/218
f 222/222/222 218/218/218 220/220/220
f 223/223/223 219/219/219 222/222/222
f 224/224/224 220/220/220 221/221/221
f 224/224/224 222/222/222 220/220/220
f 225/225/225 224/224/224 221/221/221
f 226/226/226 223/223/223 222/222/222
f 226/226/226 222/222/222 224/224/224
f 227/227/227 223/223/223 226/226/226
f 228/228/228 224/224/224 225/225/225
f 228/228/228 226/226/226 224/224/224
f 229/229/229 228/228/228 225/225/225
f 230/230/230 227/227/227 226/226/226
f 230/230/230 226/226/226 228/228/228
f 231/231/231 227/227/227 230/230/230
f 232/232/232 228/228/228 229/229/229
f 232/232/232 230/230/230 228/228/228
f 233/233/233 232/232/232 229/229/229
f 234/234/234 231/231/231 230/230/230
f 234/234/234 230/230/230 232/232/232
f 235/235/235 231/231/231 234/234/234
f 236/236/236 232/232/232 233/233/233
f 236/236/236 234/234/234 232/232/232
f 237/237/237 236/236/236 233/233/233
f 238/238/238 235/235/235 234/234/234
f 238/238/238 234/234/234 236/236/236
f 239/239/239 235/235/235 238/238/238
f 240/240/240 236/236/236 237/237/237
f 240/240/240 238/238/238 236/236/236
f 241/241/241 240/240/240 237/237/237
f 242/242/242 239/239/239 238/238/238
f 242/242/242 238/238/238 240/240/240
f 243/243/243 239/239/239 242/242/242
f 244/244/244 240/240/240 241/241/241
f 244/244/244 242/242/242 240/240/240
f 245/245/245 244/244/244 241/241/241
f 246/246/246 243/243/243 242/242/242
f 246/246/246 242/242/242 244/244/244
f 247/247/247 243/243/243 246/246/246
f 248/248/248 244/244/244 245/245/245
f 248/248/248 246/246/246 244/244/244
f 249/249/249 248/248/248 245/245/245
f 250/250/250 247/247/247 246/246/246
f 250/250/250 246/246/246 248/248/248
f 251/251/251 247/247/247 250/250/250
f 252/252/252 248/248/248 249/249/249
f 252/252/252 250/250/250 248/248/248
f 253/253/253 252/252/252 249/249/249
f 254/254/254 251/251/251 250/250/250
f 254/254/254 250/250/250 252/252/252
f 255/255/255 251/251/251 254/254/254
f 256/256/256 252/252/252 253/253/253
f 256/256/256 254/254/254 252/252/252
f 257/257/257 256/256/256 253/253/253
f 258/258/258 255/255/255 254/254/254
f 258/258/258 254/254/254 256/256/256
f 259/259/259 255/255/255 258/258/258
f 260/260/260 256/256/256 257/257/257
f 260/260/260 258/258/258 256/256/256
f 261/261/261 260/260/260 257/257/257
f 262/262/262 259/259/259 258/258/258
f 262/262/262 258/258/258 260/260/260
f 263/263/263 259/259/259 262/262/262
f 264/264/264 260/260/260 261/261/261
f 264/264/264 262/262/262 260/260/260
f 265/265/265 264/264/264 261/261/261
f 266/266/266 263/263/263 262/262/262
f 266/266/266 262/262/262 264/264/264
f 267/267/267 263/263/263 266/266/266
f 268/268/268 264/264/264 265/265/265
f 268/268/268 266/266/266 264/264/264
f 269/269/269 268/268/268 265/265/265
f 270/270/270 267/267/267 266/266/266
f 270/270/270 266/266/266 268/268/268
f 271/271/271 267/267/267 270/270/270
f 272/272/272 268/268/268 269/269/269
f 272/272/272 270/270/270 268/268/268
f 273/273/273 272/272/272 269/269/269
f 274/274/274 271/271/271 270/270/270
f 274/274/274 270/270/270 272/272/272
f 275/275/275 271/271/271 274/274/274
f 276/276/276 272/272/272 273/273/273
f 276/276/276 274/274/274 272/272/272
f 277/277/277 276/276/276 273/273/273
f 278/278/278 275/275/275 274/274/274
f 278/278/278 274/274/274 276/276/276
f 279/279/279 275/275/275 278/278/278
f 280/280/280 276/276/276 277/277/277
f 280/280/280 278/278/278 276/276/276
f 281/281/281 280/280/280 277/277/277
f 282/282/282 279/279/279 278/278/278
f 282/282/282 278/278/278 280/280/280
f 283/283/283 279/279/279 282/282/282
f 284/284/284 280/280/280 281/281/281
f 284/284/284 282/282/282 280/280/280
f 285/285/285 284/284/284 281/281/281
f 286/286/286 283/283/283 282/282/282
f 286/286/286 282/282/282 284/284/284
f 287/287/287 283/283/283 286/286/286
f 288/288/288 284/284/284 285/285/285
f 288/288/288 286/286/286 284/284/284
f 289/289/289 288/288/288 285/285/285
f 290/290/290 287/287/287 286/286/286
f 290/290/290 286/286/286 288/288/288
f 291/291/291 287/287/287 290/290/290
f 292/292/292 288/288/288 289/289/289
f 292/292/292 290/290/290 288/288/288
f 293/293/293 292/292/292 289/289/289
f 294/294/294 291/291/291 290/290/290
f 294/294/294 290/290/290 292/292/292
f 295/295/295 291/291/291 294/294/294
f 296/296/296 292/292/292 293/293/293
f 296/296/296 294/294/294 292/292/292
f 297/297/297 296/296/296 293/293/293
f 298/298/298 295/295/295 294/294/294
f 298/298/298 294/294/294 296/296/296
f 299/299/299 295/295/295 298/298/298
f 300/300/300 296/296/296 297/297/297
f 300/300/300 298/298/298 296/296/296
f 301/301/301 300/300/300 297/297/297
f 302/302/302 299/299/299 298/298/298
f 302/302/302 298/298/298 300/300/300
f 303/303/303 299/299/299 302/302/302
f 304/304/304 300/300/300 301/301/301
f 304/304/304 302/302/302 300/300/300
f 305/305/305 304/304/304 301/301/301
f 306/306/306 303/303/303 302/302/302
f 306/306/306 302/302/302 304/304/304
f 307/307/307 303/303/303 306/306/306
f 308/308/308 304/304/304 305/305/305
f 308/308/308 306/306/306 304/304/304
f 309/309/309 308/308/308 305/305/305
f 310/310/310 307/307/307 306/306/306
f 310/310/310 306/306/306 308/308/308
f 311/311/311 307/307/307 310/310/310
f 312/312/312 308/308/308 309/309/309
f 312/312/312 310/310/310 308/308/308
f 313/313/313 312/312/312 309/309/309
f 314/314/314 311/311/311 310/310/310
f 314/314/314 310/310/310 312/312/312
f 315/315/315 311/311/311 314/314/314
f 316/316/316 312/312/312 313/313/313
f 316/316/316 314/314/314 312/312/312
f 317/317/317 316/316/316 313/313/313
f 318/318/318 315/315/315 314/314/314
f 318/318/318 314/314/314 316/316/316
f 319/319/319 315/315/315 318/318/318
f 320/320/320 316/316/316 317/317/317
f 320/320/320 318/318/318 316/316/316
f 321/321/321 320/320/320 317/317/317
f 322/322/322 319/319/319 318/318/318
f 322/322/322 318/318/318 320/320/320
f 323/323/323 319/319/319 322/322/322
f 324/324/324 320/320/320 321/321/321
f 324/324/324 322/322/322 320/320/320
f 325/325/325 324/324/324 321/321/321
f 326/326/326 323/323/323 322/322/322
f 326/326/326 322/322/322 324/324/324
f 327/327/327 323/323/323 326/326/326
f 328/328/328 324/324/324 325/325/325
f 328/328/328 326/326/326 324/324/324
f 329/329/329 328/328/328 325/325/325
f 330/330/330 327/327/327 326/326/326
f 330/330/330 326/326/326 328/328/328
f 331/331/331 327/327/327 330/330/330
f 332/332/332 328/328/328 329/329/329
f 332/332/332 330/330/330 328/328/328
f 333/333/333 332/332/332 329/329/329
f 334/334/334 331/331/331 330/330/330
f 334/334/334 330/330/330 332/332/332
f 335/335/335 331/331/331 334/334/334
f 336/336/336 332/332/332 333/333/333
f 336/336/336 334/334/334 332/332/332
f 337/337/337 336/336/336 333/333/333
f 338/338/338 335/335/335 334/334/334
f 338/338/338 334/334/334 336/336/336
f 339/339/339 335/335/335 338/338/338
f 340/340/340 336/336/336 337/337/337
f 340/340/340 338/338/338 336/336/336
f 341/341/341 340/340/340 337/337/337
f 342/342/342 339/339/339 338/338/338
f 342/342/342 338/338/338 340/340/340
f 343/343/343 339/339/339 342/342/342
f 344/344/344 340/340/340 341/341/341
f 344/344/344 342/342/342 340/340/340
f 345/345/345 344/344/344 341/341/341
f 346/346/346 343/343/343 342/342/342
f 346/346/346 342/342/342 344/344/344
f 347/347/347 343/343/343 346/346/346
f 348/348/348 344/344/344 345/345/345
f 348/348/348 346/346/346 344/344/344
f 349/349/349 348/348/348 345/345/345
f 350/350/350 347/347/347 346/346/346
f 350/350/350 346/346/346 348/348/348
f 351/351/351 347/347/347 350/350/350
f 352/352/352 348/348/348 349/349/349
f 352/352/352 350/350/350 348/348/348
f 353/353/353 352/352/352 349/349/349
f 354/354/354 351/351/351 350/350/350
f 354/354/354 350/350/350 352/352/352
f 355/355/355 351/351/351 354/354/354
f 356/356/356 352/352/352 353/353/353
f 356/356/356 354/354/354 352/352/352
f 357/357/357 356/356/356 353/353/353
f 358/358/358 355/355/355 354/354/354
f 358/358/358 354/354/354 356/356/356
f 359/359/359 355/355/355 358/358/358
f 360/360/360 356/356/356 357/357/357
f 360/360/360 358/358/358 356/356/356
f 361/361/361 360/360/360 357/357/357
f 362/362/362 359/359/359 358/358/358
f 362/362/362 358/358/358 360/360/360
f 363/363/363 359/359/359 362/362/362
f 364/364/364 360/360/360 361/361/361
f 364/364/364 362/362/362 360/360/360
f 365/365/365 364/364/364 361/361/361
f 366/366/366 363/363/363 362/362/362
f 366/366/366 362/362/362 364/364/364
f 367/367/367 363/363/363 366/366/366
f 368/368/368 364/364/364 365/365/365
f 368/368/368 366/366/366 364/364/364
f 369/369/369 368/368/368 365/365/365
f 370/370/370 367/367/367 366/366/366
f 370/370/370 366/366/366 368/368/368
f 371/371/371 367/367/367 370/370/370
f 372/372/372 368/368/368 369/369/369
f 372/372/372 370/370/370 368/368/368
f 373/373/373 372/372/372 369/369/369
f 374/374/374 371/371/371 370/370/370
f 374/374/374 370/370/370 372/372/372
f 375/375/375 371/371/371 374/374/374
f 376/376/376 372/372/372 373/373/373
f 376/376/376 374/374/374 372/372/372
f 377/377/377 376/376/376 373/373/373
f 378/378/378 375/375/375 374/374/374
f 378/378/378 374/374/374 376/376/376
f 379/379/379 375/375/375 378/378/378
f 380/380/380 376/376/376 377/377/377
f 380/380/380 378/378/378 376/376/376
f 381/381/381 380/380/380 377/377/377
f 382/382/382 379/379/379 378/378/378
f 382/382/382 378/378/378 380/380/380
f 383/383/383 379/379/379 382/382/382
f 384/384/384 380/380/380 381/381/381
f 384/384/384 382/382/382 380/380/380
f 385/385/385 384/384/384 381/381/381
f 386/386/386 383/383/383 382/382/382
f 386/386/386 382/382/382 384/384/384
f 387/387/387 383/383/383 386/386/386
f 388/388/388 387/387/387 386/386/386
f 389/389/389 384/384/384 385/385/385
f 389/389/389 386/386/386 384/384/384
f 388/388/388 386/386/386 389/389/389
f 390/390/390 389/389/389 385/385/385
f 391/391/391 388/388/388 389/389/389
f 391/391/391 389/389/389 390/390/390
f 392/392/392 391/391/391 390/390/390
