g SwordTrail
v 0.0980087817 0.995945513 -1.62260108E-07
v -1.1920929E-07 1 -1.62920671E-07
v 0.00130147452 0.714445174 -0.0437272303
v 0.0719581023 0.711555481 -0.0437271819
v 0.00111913099 0.452575743 -1.4221132E-06
v 0.195090204 0.980785251 -1.5979019E-07
v 0.0460082181 0.45081237 -1.4221132E-06
v 0.141959339 0.700591624 -0.0437271222
v 0.290369332 0.95768255 -1.56026289E-07
v 0.0905098841 0.443771482 -1.41838791E-06
v 0.210647792 0.683968365 -0.0437270589
v 0.382683367 0.923879504 -1.50519071E-07
v 0.134148151 0.433280259 -1.41838791E-06
v 0.277211815 0.659563184 -0.0437269956
v 0.471568942 0.882627368 -1.43798232E-07
v 0.176465407 0.417697191 -1.41466262E-06
v 0.341290623 0.629854262 -0.0437269285
v 0.555570126 0.831469655 -1.3546358E-07
v 0.217174143 0.39888975 -1.41093733E-06
v 0.401861191 0.592936754 -0.0437268503
v 0.63464421 0.773663878 -1.26045833E-07
v 0.255682468 0.375354797 1.02967333E-05
v 0.45886606 0.551292956 -0.0437267721
v 0.70710665 0.707106888 -1.15202312E-07
v 0.291895598 0.348962516 -1.40348675E-06
v 0.51111728 0.503272593 -0.043726705
v 0.773328483 0.634979725 -1.03451306E-07
v 0.325116813 0.318371534 -1.39976146E-06
v 0.558855772 0.451303244 -0.0437266342
v 0.831469595 0.555570304 -9.05138648E-08
v 0.355440974 0.285417169 -1.39231088E-06
v 0.60078156 0.394016534 -0.0437265448
v 0.882291973 0.471904397 -7.68829693E-08
v 0.382100105 0.248937204 -1.38858559E-06
v 0.637417197 0.333727866 -0.0437264703
v 0.923879504 0.382683516 -6.23470413E-08
v 0.405368209 0.210695744 -1.38113501E-06
v 0.66740793 0.269367158 -0.0437263995
v 0.957347333 0.290704787 -4.73618051E-08
v 0.4244425 0.169720158 -1.37368443E-06
v 0.691531181 0.203085065 -0.043726325
v 0.980785251 0.195090473 -3.17842499E-08
v 0.439758718 0.127669752 -1.36995914E-06
v 0.70843637 0.134114742 -0.0437262617
v 0.995610237 0.0983443409 -1.6022307E-08
v 0.45051682 0.0837646797 -1.36250856E-06
v 0.719118297 0.0643954054 -0.0437261835
v 1 1.94707184E-07 -1.23001686E-14
v 0.457290888 0.0395298302 -1.35505798E-06
v 0.722289979 -0.00654308638 -0.0437261276
v 0.995610297 -0.0977846533 1.59311604E-08
v 0.459321082 -0.00562605029 -1.34760739E-06
v 0.719118357 -0.0770113245 -0.0437260717
v 0.98078531 -0.195090085 3.17842286E-08
v 0.457290947 -0.0503368415 1.03637885E-05
v 0.70843643 -0.147200927 -0.0437260158
v 0.957347393 -0.290145099 4.72706496E-08
v 0.45051688 -0.0950167775 1.03712391E-05
v 0.691531241 -0.215700984 -0.0437259674
v 0.923879564 -0.382683188 6.23470129E-08
v 0.439758778 -0.138476774 1.03786897E-05
v 0.66740799 -0.282453388 -0.0437259339
v 0.882292092 -0.471344799 7.6791828E-08
v 0.424442559 -0.180972293 -1.31780507E-06
v 0.637417197 -0.346343845 -0.0437258966
v 0.831469715 -0.555570066 9.05138648E-08
v 0.405368268 -0.221502766 -1.31035449E-06
v 0.60078162 -0.407102793 -0.0437258631
v 0.773328602 -0.634420156 1.03360179E-07
v 0.382100165 -0.260189384 -1.3066292E-06
v 0.558855891 -0.463919371 -0.0437258519
v 0.707106888 -0.70710665 1.15202312E-07
v 0.355441034 -0.296224207 -1.29917862E-06
v 0.511117399 -0.516358972 -0.0437258407
v 0.634644449 -0.773104429 1.25954699E-07
v 0.325116873 -0.329623759 1.0408492E-05
v 0.458866119 -0.563909054 -0.0437258296
v 0.555570304 -0.831469595 1.35463594E-07
v 0.291895688 -0.359769613 -1.28800275E-06
v 0.40186131 -0.606023133 -0.043725837
v 0.471569002 -0.882067978 1.43707112E-07
v 0.255682558 -0.386607051 -1.28427746E-06
v 0.341290712 -0.642470539 -0.0437258519
v 0.382683367 -0.923879623 1.50519085E-07
v 0.217174187 -0.409696937 -1.28055217E-06
v 0.277211845 -0.672649741 -0.0437258705
v 0.290369272 -0.957123399 1.55935183E-07
v 0.176465407 -0.428949535 -1.27682688E-06
v 0.210647792 -0.696584582 -0.0437258892
v 0.195090204 -0.98078531 1.59790204E-07
v 0.134148151 -0.444087446 -1.27682688E-06
v 0.141959339 -0.713678062 -0.0437259227
v 0.098008737 -0.995386243 1.62168988E-07
v 0.0905098841 -0.455023825 -1.27310159E-06
v 0.0719580576 -0.724171638 -0.04372596
v -2.0663208E-07 -1 1.62920671E-07
v 0.0460081883 -0.461619526 -1.27310159E-06
v 0.00130141107 -0.727531612 -0.0437260047
v -0.0981204063 -0.995386124 1.62168973E-07
v 0.00111909083 -0.463827968 -1.27310159E-06
v -0.0694487691 -0.724171579 -0.0437260531
v -0.195090607 -0.980785191 1.59790176E-07
v -0.0438585468 -0.461619496 -1.27310159E-06
v -0.139356509 -0.713678002 -0.0437261127
v -0.290480971 -0.95712316 1.5593514E-07
v -0.0882716924 -0.455023736 -1.27310159E-06
v -0.208138511 -0.696584463 -0.043726176
v -0.382683784 -0.923879325 1.50519043E-07
v -0.131998524 -0.444087356 -1.27682688E-06
v -0.27460897 -0.672649503 -0.0437262431
v -0.471680641 -0.8820678 1.43707069E-07
v -0.174227238 -0.428949386 -1.27682688E-06
v -0.338781357 -0.6424703 -0.0437263176
v -0.555570602 -0.831469357 1.35463537E-07
v -0.215024576 -0.409696817 -1.28055217E-06
v -0.399258405 -0.606023014 -0.0437263846
v -0.634755969 -0.773104191 1.25954642E-07
v -0.253444314 -0.386606932 -1.28427746E-06
v -0.456356883 -0.563908875 -0.0437264629
v -0.707107127 -0.707106471 1.15202241E-07
v -0.289745957 -0.359769493 -1.28800275E-06
v -0.508514464 -0.516358733 -0.0437265374
v -0.773440182 -0.634419918 1.03360101E-07
v -0.322878659 -0.32962361 -1.29545333E-06
v -0.556346416 -0.463919073 -0.0437266082
v -0.831469953 -0.555569768 9.05137796E-08
v -0.353291333 -0.296224117 -1.29917862E-06
v -0.598178625 -0.407102615 -0.0437266901
v -0.882403553 -0.471344411 7.67917356E-08
v -0.379861891 -0.260189235 -1.3066292E-06
v -0.634907842 -0.346343607 -0.0437267646
v -0.923879862 -0.38268277 6.23469205E-08
v -0.403218567 -0.221502587 -1.31035449E-06
v -0.664805114 -0.28245309 -0.0437268391
v -0.957458794 -0.290144622 4.7270543E-08
v -0.422204286 -0.180972114 1.03861403E-05
v -0.689021826 -0.215700641 -0.0437269099
v -0.980785429 -0.195089579 3.17841042E-08
v -0.437609017 -0.138476536 -1.32525565E-06
v -0.705833375 -0.14720054 -0.0437269807
v -0.995721638 -0.0977840722 1.59310272E-08
v -0.448278517 -0.095016554 -1.33270623E-06
v -0.716608822 -0.0770108998 -0.0437270552
v -1 8.46389867E-07 -1.57316068E-13
v -0.455141038 -0.0503365695 -1.34015681E-06
v -0.719686866 -0.00654261792 -0.0437271111
v -0.995721519 0.0983450711 -1.60224651E-08
v -0.457082659 -0.0056257532 -1.34760739E-06
v -0.716608644 0.0643959418 -0.0437271707
v -0.980785072 0.195091233 -3.17844133E-08
v -0.455140948 0.0395301729 -1.35505798E-06
v -0.705833077 0.134115294 -0.0437272266
v -0.957458258 0.290705621 -4.73619686E-08
v -0.448278368 0.0837650225 -1.36250856E-06
v -0.689021468 0.203085676 -0.0437272713
v -0.923879087 0.38268438 -6.23472118E-08
v -0.437608778 0.127670124 -1.36995914E-06
v -0.664804518 0.269367754 -0.0437273122
v -0.882402718 0.471905231 -7.68831327E-08
v -0.422203958 0.169720545 -1.37368443E-06
v -0.634907186 0.333728462 -0.0437273383
v -0.831468999 0.555571139 -9.05140425E-08
v -0.40321821 0.210696116 -1.38113501E-06
v -0.59817785 0.3940171 -0.0437273718
v -0.77343905 0.63498044 -1.03451455E-07
v -0.379861444 0.248937622 -1.38858559E-06
v -0.556345642 0.451303899 -0.0437273942
v -0.707105994 0.707107544 -1.15202454E-07
v -0.353290826 0.285417527 -1.39231088E-06
v -0.508513629 0.503273129 -0.0437274054
v -0.634754717 0.773664594 -1.26045961E-07
v -0.322878063 0.318371892 -1.39976146E-06
v -0.45635578 0.551293492 -0.0437274054
v -0.555569232 0.831470311 -1.35463708E-07
v -0.28974539 0.348962843 -1.40348675E-06
v -0.399257421 0.592937231 -0.0437273979
v -0.471679121 0.882627904 -1.43798346E-07
v -0.253443688 0.375355124 1.02967333E-05
v -0.338780314 0.629854798 -0.0437273942
v -0.382682174 0.9238801 -1.5051917E-07
v -0.215023875 0.398890018 -1.41093733E-06
v -0.274607867 0.659563661 -0.0437273681
v -0.174226508 0.41769743 -1.41466262E-06
v 0.0980087817 0.995945513 -1.62260108E-07
v 0.0013014857 0.714445174 0.0437259413
v -1.1920929E-07 1 -1.62920671E-07
v 0.0719581023 0.711555481 0.0437259935
v 0.00111913099 0.452575743 -1.4221132E-06
v 0.195090204 0.980785251 -1.5979019E-07
v 0.0460082181 0.45081237 -1.4221132E-06
v 0.141959339 0.700591624 0.0437260531
v 0.290369332 0.95768255 -1.56026289E-07
v 0.0905098841 0.443771482 -1.41838791E-06
v 0.210647792 0.683968365 0.043726109
v 0.382683367 0.923879504 -1.50519071E-07
v 0.134148151 0.433280259 -1.41838791E-06
v 0.277211815 0.659563184 0.043726176
v 0.471568942 0.882627368 -1.43798232E-07
v 0.176465407 0.417697191 -1.41466262E-06
v 0.341290623 0.629854262 0.0437262468
v 0.555570126 0.831469655 -1.3546358E-07
v 0.217174143 0.39888975 -1.41093733E-06
v 0.401861191 0.592936754 0.0437263213
v 0.63464421 0.773663878 -1.26045833E-07
v 0.255682468 0.375354797 1.02967333E-05
v 0.45886606 0.551292956 0.0437263995
v 0.70710665 0.707106888 -1.15202312E-07
v 0.291895598 0.348962516 -1.40348675E-06
v 0.51111728 0.503272593 0.0437264629
v 0.773328483 0.634979725 -1.03451306E-07
v 0.325116813 0.318371534 -1.39976146E-06
v 0.558855772 0.451303244 0.0437265411
v 0.831469595 0.555570304 -9.05138648E-08
v 0.355440974 0.285417169 -1.39231088E-06
v 0.60078156 0.394016534 0.0437266268
v 0.882291973 0.471904397 -7.68829693E-08
v 0.382100105 0.248937204 -1.38858559E-06
v 0.637417197 0.333727866 0.0437267013
v 0.923879504 0.382683516 -6.23470413E-08
v 0.405368209 0.210695744 -1.38113501E-06
v 0.66740793 0.269367158 0.0437267758
v 0.957347333 0.290704787 -4.73618051E-08
v 0.4244425 0.169720158 -1.37368443E-06
v 0.691531181 0.203085065 0.0437268503
v 0.980785251 0.195090473 -3.17842499E-08
v 0.439758718 0.127669752 -1.36995914E-06
v 0.70843637 0.134114742 0.0437269136
v 0.995610237 0.0983443409 -1.6022307E-08
v 0.45051682 0.0837646797 -1.36250856E-06
v 0.719118297 0.0643954054 0.0437269844
v 1 1.94707184E-07 -1.23001686E-14
v 0.457290888 0.0395298302 -1.35505798E-06
v 0.722289979 -0.00654308638 0.0437270477
v 0.995610297 -0.0977846533 1.59311604E-08
v 0.459321082 -0.00562605029 -1.34760739E-06
v 0.719118357 -0.0770113245 0.0437271036
v 0.98078531 -0.195090085 3.17842286E-08
v 0.457290947 -0.0503368415 1.03637885E-05
v 0.70843643 -0.147200927 0.0437271483
v 0.957347393 -0.290145099 4.72706496E-08
v 0.45051688 -0.0950167775 1.03712391E-05
v 0.691531241 -0.215700984 0.0437272042
v 0.923879564 -0.382683188 6.23470129E-08
v 0.439758778 -0.138476774 1.03786897E-05
v 0.66740799 -0.282453388 0.0437272377
v 0.882292092 -0.471344799 7.6791828E-08
v 0.424442559 -0.180972293 -1.31780507E-06
v 0.637417197 -0.346343845 0.043727275
v 0.831469715 -0.555570066 9.05138648E-08
v 0.405368268 -0.221502766 -1.31035449E-06
v 0.60078162 -0.407102793 0.0437273085
v 0.773328602 -0.634420156 1.03360179E-07
v 0.382100165 -0.260189384 -1.3066292E-06
v 0.558855891 -0.463919371 0.0437273197
v 0.707106888 -0.70710665 1.15202312E-07
v 0.355441034 -0.296224207 -1.29917862E-06
v 0.511117399 -0.516358972 0.0437273309
v 0.634644449 -0.773104429 1.25954699E-07
v 0.325116873 -0.329623759 1.0408492E-05
v 0.458866119 -0.563909054 0.0437273458
v 0.555570304 -0.831469595 1.35463594E-07
v 0.291895688 -0.359769613 -1.28800275E-06
v 0.40186131 -0.606023133 0.0437273383
v 0.471569002 -0.882067978 1.43707112E-07
v 0.255682558 -0.386607051 -1.28427746E-06
v 0.341290712 -0.642470539 0.0437273234
v 0.382683367 -0.923879623 1.50519085E-07
v 0.217174187 -0.409696937 -1.28055217E-06
v 0.277211845 -0.672649741 0.0437273048
v 0.290369272 -0.957123399 1.55935183E-07
v 0.176465407 -0.428949535 -1.27682688E-06
v 0.210647792 -0.696584582 0.0437272824
v 0.195090204 -0.98078531 1.59790204E-07
v 0.134148151 -0.444087446 -1.27682688E-06
v 0.141959339 -0.713678062 0.0437272489
v 0.098008737 -0.995386243 1.62168988E-07
v 0.0905098841 -0.455023825 -1.27310159E-06
v 0.0719580576 -0.724171638 0.0437272042
v -2.0663208E-07 -1 1.62920671E-07
v 0.0460081883 -0.461619526 -1.27310159E-06
v 0.00130142318 -0.727531612 0.043727167
v -0.0981204063 -0.995386124 1.62168973E-07
v 0.00111909083 -0.463827968 -1.27310159E-06
v -0.0694487691 -0.724171579 0.0437271111
v -0.195090607 -0.980785191 1.59790176E-07
v -0.0438585468 -0.461619496 -1.27310159E-06
v -0.139356509 -0.713678002 0.0437270552
v -0.290480971 -0.95712316 1.5593514E-07
v -0.0882716924 -0.455023736 -1.27310159E-06
v -0.208138511 -0.696584463 0.0437269956
v -0.382683784 -0.923879325 1.50519043E-07
v -0.131998524 -0.444087356 -1.27682688E-06
v -0.27460897 -0.672649503 0.0437269323
v -0.471680641 -0.8820678 1.43707069E-07
v -0.174227238 -0.428949386 -1.27682688E-06
v -0.338781357 -0.6424703 0.043726854
v -0.555570602 -0.831469357 1.35463537E-07
v -0.215024576 -0.409696817 -1.28055217E-06
v -0.399258405 -0.606023014 0.0437267907
v -0.634755969 -0.773104191 1.25954642E-07
v -0.253444314 -0.386606932 -1.28427746E-06
v -0.456356883 -0.563908875 0.0437267125
v -0.707107127 -0.707106471 1.15202241E-07
v -0.289745957 -0.359769493 -1.28800275E-06
v -0.508514464 -0.516358733 0.043726638
v -0.773440182 -0.634419918 1.03360101E-07
v -0.322878659 -0.32962361 -1.29545333E-06
v -0.556346416 -0.463919073 0.0437265597
v -0.831469953 -0.555569768 9.05137796E-08
v -0.353291333 -0.296224117 -1.29917862E-06
v -0.598178625 -0.407102615 0.0437264778
v -0.882403553 -0.471344411 7.67917356E-08
v -0.379861891 -0.260189235 -1.3066292E-06
v -0.634907842 -0.346343607 0.0437264033
v -0.923879862 -0.38268277 6.23469205E-08
v -0.403218567 -0.221502587 -1.31035449E-06
v -0.664805114 -0.28245309 0.043726325
v -0.957458794 -0.290144622 4.7270543E-08
v -0.422204286 -0.180972114 1.03861403E-05
v -0.689021826 -0.215700641 0.0437262617
v -0.980785429 -0.195089579 3.17841042E-08
v -0.437609017 -0.138476536 -1.32525565E-06
v -0.705833375 -0.14720054 0.0437261872
v -0.995721638 -0.0977840722 1.59310272E-08
v -0.448278517 -0.095016554 -1.33270623E-06
v -0.716608822 -0.0770108998 0.0437261239
v -1 8.46389867E-07 -1.57316068E-13
v -0.455141038 -0.0503365695 -1.34015681E-06
v -0.719686866 -0.00654261792 0.0437260568
v -0.995721519 0.0983450711 -1.60224651E-08
v -0.457082659 -0.0056257532 -1.34760739E-06
v -0.716608644 0.0643959418 0.0437259972
v -0.980785072 0.195091233 -3.17844133E-08
v -0.455140948 0.0395301729 -1.35505798E-06
v -0.705833077 0.134115294 0.0437259525
v -0.957458258 0.290705621 -4.73619686E-08
v -0.448278368 0.0837650225 -1.36250856E-06
v -0.689021468 0.203085676 0.0437259041
v -0.923879087 0.38268438 -6.23472118E-08
v -0.437608778 0.127670124 -1.36995914E-06
v -0.664804518 0.269367754 0.0437258631
v -0.882402718 0.471905231 -7.68831327E-08
v -0.422203958 0.169720545 -1.37368443E-06
v -0.634907186 0.333728462 0.0437258333
v -0.831468999 0.555571139 -9.05140425E-08
v -0.40321821 0.210696116 -1.38113501E-06
v -0.59817785 0.3940171 0.043725796
v -0.77343905 0.63498044 -1.03451455E-07
v -0.379861444 0.248937622 -1.38858559E-06
v -0.556345642 0.451303899 0.0437257811
v -0.707105994 0.707107544 -1.15202454E-07
v -0.353290826 0.285417527 -1.39231088E-06
v -0.508513629 0.503273129 0.04372577
v -0.634754717 0.773664594 -1.26045961E-07
v -0.322878063 0.318371892 -1.39976146E-06
v -0.45635578 0.551293492 0.0437257662
v -0.555569232 0.831470311 -1.35463708E-07
v -0.28974539 0.348962843 -1.40348675E-06
v -0.399257421 0.592937231 0.0437257737
v -0.471679121 0.882627904 -1.43798346E-07
v -0.253443688 0.375355124 1.02967333E-05
v -0.338780314 0.629854798 0.0437257774
v -0.382682174 0.9238801 -1.5051917E-07
v -0.215023875 0.398890018 -1.41093733E-06
v -0.274607867 0.659563661 0.0437257998
v -0.174226508 0.41769743 -1.41466262E-06
vt 0.978774786 0.996530294
vt 0.995286107 0.996530294
vt 0.995339632 0.499843359
vt 0.97882843 0.499843359
vt 0.995393217 -0.00343585014
vt 0.962263584 0.996530294
vt 0.978881955 -0.00343585014
vt 0.962317109 0.499843359
vt 0.945752263 0.996530294
vt 0.962370753 -0.00343585014
vt 0.945805848 0.499843359
vt 0.929240942 0.996530294
vt 0.945859432 -0.00343585014
vt 0.929294586 0.499843359
vt 0.91272974 0.996530294
vt 0.929348171 -0.00343585014
vt 0.912783265 0.499843359
vt 0.896218419 0.996530294
vt 0.912836909 -0.00343585014
vt 0.896272004 0.499843359
vt 0.879707158 0.996530294
vt 0.896325588 -0.00343585014
vt 0.879760742 0.499843359
vt 0.863195896 0.996530294
vt 0.879814267 -0.00343590975
vt 0.863249421 0.499843359
vt 0.846684575 0.996530294
vt 0.863303006 -0.00343585014
vt 0.846738219 0.499843359
vt 0.830173373 0.996530354
vt 0.846791744 -0.00343590975
vt 0.830226958 0.499843359
vt 0.813662052 0.996530354
vt 0.830280542 -0.00343579054
vt 0.813715696 0.499843389
vt 0.79715085 0.996530354
vt 0.813769221 -0.00343579054
vt 0.797204375 0.499843389
vt 0.780639529 0.996530354
vt 0.7972579 -0.00343579054
vt 0.780693054 0.499843389
vt 0.764128208 0.996530354
vt 0.780746639 -0.00343579054
vt 0.764181793 0.499843359
vt 0.747616887 0.996530354
vt 0.764235377 -0.00343579054
vt 0.747670472 0.499843389
vt 0.731105566 0.996530354
vt 0.747724116 -0.00343579054
vt 0.73115921 0.499843389
vt 0.714594305 0.996530354
vt 0.731212795 -0.00343579054
vt 0.714647889 0.499843389
vt 0.698082983 0.996530354
vt 0.714701474 -0.00343579054
vt 0.698136568 0.499843389
vt 0.681571722 0.996530354
vt 0.698190153 -0.00343579054
vt 0.681625307 0.499843389
vt 0.665060401 0.996530354
vt 0.681678891 -0.00343579054
vt 0.665114045 0.499843389
vt 0.64854908 0.996530354
vt 0.66516757 -0.00343579054
vt 0.648602724 0.499843389
vt 0.632037759 0.996530354
vt 0.648656309 -0.00343579054
vt 0.632091403 0.499843389
vt 0.615526497 0.996530354
vt 0.632144988 -0.00343579054
vt 0.615580082 0.499843389
vt 0.599015176 0.996530354
vt 0.615633726 -0.00343579054
vt 0.599068761 0.499843389
vt 0.582503855 0.996530354
vt 0.599122405 -0.00343579054
vt 0.58255744 0.499843389
vt 0.565992534 0.996530354
vt 0.582611084 -0.00343579054
vt 0.566046119 0.499843389
vt 0.549481213 0.996530354
vt 0.566099763 -0.00343579054
vt 0.549534798 0.499843389
vt 0.532969892 0.996530354
vt 0.549588442 -0.00343579054
vt 0.533023477 0.499843389
vt 0.516458631 0.996530354
vt 0.533077121 -0.00343579054
vt 0.516512156 0.499843389
vt 0.499947339 0.996530294
vt 0.5165658 -0.00343579054
vt 0.500000894 0.499843389
vt 0.483435988 0.996530354
vt 0.500054479 -0.00343579054
vt 0.483489543 0.499843389
vt 0.466924608 0.996530354
vt 0.483543098 -0.00343579054
vt 0.466978222 0.499843389
vt 0.450413287 0.996530354
vt 0.467031777 -0.00343579054
vt 0.450466901 0.499843389
vt 0.433901966 0.996530354
vt 0.450520456 -0.00343579054
vt 0.43395558 0.499843389
vt 0.417390645 0.996530354
vt 0.434009135 -0.00343579054
vt 0.417444259 0.499843389
vt 0.400879383 0.996530354
vt 0.417497873 -0.00343579054
vt 0.400932938 0.499843389
vt 0.384368002 0.996530354
vt 0.400986552 -0.00343579054
vt 0.384421617 0.499843389
vt 0.367856681 0.996530354
vt 0.384475231 -0.00343579054
vt 0.367910296 0.499843389
vt 0.35134536 0.996530354
vt 0.36796391 -0.00343579054
vt 0.351398975 0.499843389
vt 0.334834099 0.996530354
vt 0.351452589 -0.00343579054
vt 0.334887654 0.499843389
vt 0.318322778 0.996530354
vt 0.334941268 -0.00343579054
vt 0.318376333 0.499843389
vt 0.301811457 0.996530354
vt 0.318429947 -0.00343579054
vt 0.301865011 0.499843389
vt 0.285300136 0.996530354
vt 0.301918626 -0.00343579054
vt 0.28535369 0.499843389
vt 0.268788815 0.996530354
vt 0.285407305 -0.00343579054
vt 0.268842369 0.499843389
vt 0.252277553 0.996530354
vt 0.268895984 -0.00343579054
vt 0.252331108 0.499843389
vt 0.235766232 0.996530354
vt 0.252384663 -0.00343579054
vt 0.235819846 0.499843389
vt 0.219254911 0.996530354
vt 0.235873401 -0.00343579054
vt 0.219308466 0.499843389
vt 0.20274353 0.996530354
vt 0.21936202 -0.00343579054
vt 0.202797085 0.499843389
vt 0.186232269 0.996530354
vt 0.20285064 -0.00343579054
vt 0.186285764 0.499843389
vt 0.169720948 0.996530354
vt 0.186339378 -0.00343579054
vt 0.169774503 0.499843389
vt 0.153209627 0.996530354
vt 0.169828057 -0.00343579054
vt 0.153263241 0.499843419
vt 0.136698306 0.996530354
vt 0.153316736 -0.00343579054
vt 0.13675192 0.499843419
vt 0.120186985 0.996530354
vt 0.136805475 -0.00343579054
vt 0.120240599 0.499843419
vt 0.103675663 0.996530354
vt 0.120294094 -0.00343579054
vt 0.103729218 0.499843419
vt 0.0871642828 0.996530414
vt 0.103782773 -0.00343579054
vt 0.0872178376 0.499843419
vt 0.0706529021 0.996530354
vt 0.087271452 -0.00343579054
vt 0.0707065165 0.499843419
vt 0.0541415811 0.996530354
vt 0.0707601309 -0.00343579054
vt 0.0541951954 0.499843419
vt 0.03763026 0.996530354
vt 0.0542488098 -0.00343579054
vt 0.0376838744 0.499843419
vt 0.0211189985 0.996530414
vt 0.0377374887 -0.00343579054
vt 0.0211726129 0.499843419
vt 0.00460773706 0.996530354
vt 0.0212261677 -0.00343579054
vt 0.00466135144 0.499843419
vt 0.00471490622 -0.00343579054
vt 0.978774786 0.996530294
vt 0.995339632 0.499843359
vt 0.995286107 0.996530294
vt 0.97882843 0.499843359
vt 0.995393217 -0.00343585014
vt 0.962263584 0.996530294
vt 0.978881955 -0.00343585014
vt 0.962317109 0.499843359
vt 0.945752263 0.996530294
vt 0.962370753 -0.00343585014
vt 0.945805848 0.499843359
vt 0.929240942 0.996530294
vt 0.945859432 -0.00343585014
vt 0.929294586 0.499843359
vt 0.91272974 0.996530294
vt 0.929348171 -0.00343585014
vt 0.912783265 0.499843359
vt 0.896218419 0.996530294
vt 0.912836909 -0.00343585014
vt 0.896272004 0.499843359
vt 0.879707158 0.996530294
vt 0.896325588 -0.00343585014
vt 0.879760742 0.499843359
vt 0.863195896 0.996530294
vt 0.879814267 -0.00343590975
vt 0.863249421 0.499843359
vt 0.846684575 0.996530294
vt 0.863303006 -0.00343585014
vt 0.846738219 0.499843359
vt 0.830173373 0.996530354
vt 0.846791744 -0.00343590975
vt 0.830226958 0.499843359
vt 0.813662052 0.996530354
vt 0.830280542 -0.00343579054
vt 0.813715696 0.499843389
vt 0.79715085 0.996530354
vt 0.813769221 -0.00343579054
vt 0.797204375 0.499843389
vt 0.780639529 0.996530354
vt 0.7972579 -0.00343579054
vt 0.780693054 0.499843389
vt 0.764128208 0.996530354
vt 0.780746639 -0.00343579054
vt 0.764181793 0.499843359
vt 0.747616887 0.996530354
vt 0.764235377 -0.00343579054
vt 0.747670472 0.499843389
vt 0.731105566 0.996530354
vt 0.747724116 -0.00343579054
vt 0.73115921 0.499843389
vt 0.714594305 0.996530354
vt 0.731212795 -0.00343579054
vt 0.714647889 0.499843389
vt 0.698082983 0.996530354
vt 0.714701474 -0.00343579054
vt 0.698136568 0.499843389
vt 0.681571722 0.996530354
vt 0.698190153 -0.00343579054
vt 0.681625307 0.499843389
vt 0.665060401 0.996530354
vt 0.681678891 -0.00343579054
vt 0.665114045 0.499843389
vt 0.64854908 0.996530354
vt 0.66516757 -0.00343579054
vt 0.648602724 0.499843389
vt 0.632037759 0.996530354
vt 0.648656309 -0.00343579054
vt 0.632091403 0.499843389
vt 0.615526497 0.996530354
vt 0.632144988 -0.00343579054
vt 0.615580082 0.499843389
vt 0.599015176 0.996530354
vt 0.615633726 -0.00343579054
vt 0.599068761 0.499843389
vt 0.582503855 0.996530354
vt 0.599122405 -0.00343579054
vt 0.58255744 0.499843389
vt 0.565992534 0.996530354
vt 0.582611084 -0.00343579054
vt 0.566046119 0.499843389
vt 0.549481213 0.996530354
vt 0.566099763 -0.00343579054
vt 0.549534798 0.499843389
vt 0.532969892 0.996530354
vt 0.549588442 -0.00343579054
vt 0.533023477 0.499843389
vt 0.516458631 0.996530354
vt 0.533077121 -0.00343579054
vt 0.516512156 0.499843389
vt 0.499947339 0.996530294
vt 0.5165658 -0.00343579054
vt 0.500000894 0.499843389
vt 0.483435988 0.996530354
vt 0.500054479 -0.00343579054
vt 0.483489543 0.499843389
vt 0.466924608 0.996530354
vt 0.483543098 -0.00343579054
vt 0.466978222 0.499843389
vt 0.450413287 0.996530354
vt 0.467031777 -0.00343579054
vt 0.450466901 0.499843389
vt 0.433901966 0.996530354
vt 0.450520456 -0.00343579054
vt 0.43395558 0.499843389
vt 0.417390645 0.996530354
vt 0.434009135 -0.00343579054
vt 0.417444259 0.499843389
vt 0.400879383 0.996530354
vt 0.417497873 -0.00343579054
vt 0.400932938 0.499843389
vt 0.384368002 0.996530354
vt 0.400986552 -0.00343579054
vt 0.384421617 0.499843389
vt 0.367856681 0.996530354
vt 0.384475231 -0.00343579054
vt 0.367910296 0.499843389
vt 0.35134536 0.996530354
vt 0.36796391 -0.00343579054
vt 0.351398975 0.499843389
vt 0.334834099 0.996530354
vt 0.351452589 -0.00343579054
vt 0.334887654 0.499843389
vt 0.318322778 0.996530354
vt 0.334941268 -0.00343579054
vt 0.318376333 0.499843389
vt 0.301811457 0.996530354
vt 0.318429947 -0.00343579054
vt 0.301865011 0.499843389
vt 0.285300136 0.996530354
vt 0.301918626 -0.00343579054
vt 0.28535369 0.499843389
vt 0.268788815 0.996530354
vt 0.285407305 -0.00343579054
vt 0.268842369 0.499843389
vt 0.252277553 0.996530354
vt 0.268895984 -0.00343579054
vt 0.252331108 0.499843389
vt 0.235766232 0.996530354
vt 0.252384663 -0.00343579054
vt 0.235819846 0.499843389
vt 0.219254911 0.996530354
vt 0.235873401 -0.00343579054
vt 0.219308466 0.499843389
vt 0.20274353 0.996530354
vt 0.21936202 -0.00343579054
vt 0.202797085 0.499843389
vt 0.186232269 0.996530354
vt 0.20285064 -0.00343579054
vt 0.186285764 0.499843389
vt 0.169720948 0.996530354
vt 0.186339378 -0.00343579054
vt 0.169774503 0.499843389
vt 0.153209627 0.996530354
vt 0.169828057 -0.00343579054
vt 0.153263241 0.499843419
vt 0.136698306 0.996530354
vt 0.153316736 -0.00343579054
vt 0.13675192 0.499843419
vt 0.120186985 0.996530354
vt 0.136805475 -0.00343579054
vt 0.120240599 0.499843419
vt 0.103675663 0.996530354
vt 0.120294094 -0.00343579054
vt 0.103729218 0.499843419
vt 0.0871642828 0.996530414
vt 0.103782773 -0.00343579054
vt 0.0872178376 0.499843419
vt 0.0706529021 0.996530354
vt 0.087271452 -0.00343579054
vt 0.0707065165 0.499843419
vt 0.0541415811 0.996530354
vt 0.0707601309 -0.00343579054
vt 0.0541951954 0.499843419
vt 0.03763026 0.996530354
vt 0.0542488098 -0.00343579054
vt 0.0376838744 0.499843419
vt 0.0211189985 0.996530414
vt 0.0377374887 -0.00343579054
vt 0.0211726129 0.499843419
vt 0.00460773706 0.996530354
vt 0.0212261677 -0.00343579054
vt 0.00466135144 0.499843419
vt 0.00471490622 -0.00343579054
vn 0.0147922942 0.150620922 -0.988480926
vn 0.00623364514 0.151400551 -0.988452852
vn -2.70446144E-05 -0.00244154921 -0.99999702
vn -7.30619213E-05 -0.000936740253 -0.999999642
vn -0.0066327001 -0.164714456 -0.986318946
vn 0.029544387 0.148664385 -0.988446355
vn -0.0161121953 -0.163779214 -0.986365438
vn -0.00047414811 -0.00246483134 -0.999996901
vn 0.0439432524 0.145098761 -0.988440871
vn -0.0321331248 -0.161523029 -0.986345708
vn -0.000204979267 -0.000781880401 -0.999999762
vn 0.0580902323 0.140343666 -0.9883973
vn -0.047731854 -0.157453299 -0.986372173
vn -0.00085310993 -0.00211973581 -0.999997377
vn 0.0715648532 0.134085074 -0.98838228
vn -0.0630079061 -0.152098075 -0.986355007
vn -0.00023583771 -0.000579740794 -0.999999881
vn 0.0845842361 0.126679614 -0.988330841
vn -0.0774590373 -0.145103365 -0.986379802
vn -0.00108030811 -0.00167012285 -0.999998093
vn 0.0966425017 0.117937103 -0.988307178
vn -0.0914391801 -0.136833772 -0.986364722
vn -0.000218895701 -0.000307783193 -1
vn 0.108040288 0.108125523 -0.988249063
vn -0.104301251 -0.127088711 -0.98639226
vn -0.00111217506 -0.0011625113 -0.999998689
vn 0.118230864 0.0971959457 -0.988217771
vn -0.116302125 -0.116288163 -0.986382723
vn -2.56606563E-05 -9.48408997E-05 -1
vn 0.127560332 0.0853151828 -0.98815465
vn -0.126978055 -0.104277737 -0.986409068
vn -0.000959492638 -0.000689934473 -0.999999285
vn 0.135487333 0.0725771263 -0.988117278
vn -0.136668265 -0.0913054869 -0.986400127
vn 0.000245338189 6.12204458E-05 -1
vn 0.142366856 0.0590507314 -0.988050938
vn -0.144794449 -0.0774590075 -0.986425161
vn -0.000643553853 -0.000314197969 -0.999999762
vn 0.147705585 0.0449571274 -0.988009095
vn -0.151751608 -0.0628443956 -0.986418784
vn 0.000586170936 0.000111167326 -0.999999881
vn 0.151836589 0.0302813277 -0.987941563
vn -0.157024816 -0.0476941876 -0.986442327
vn -0.000213052772 -8.93377364E-05 -1
vn 0.154349029 0.0153471036 -0.987897277
vn -0.160981551 -0.0320083722 -0.986438274
vn 0.000952554867 2.99666608E-05 -0.999999523
vn 0.155532375 7.8071047E-05 -0.987830818
vn -0.163208172 -0.0161325689 -0.986459732
vn 0.000258686225 -7.06679202E-05 -1
vn 0.155080497 -0.0151349576 -0.987785935
vn -0.164029494 -3.66030727E-05 -0.986455441
vn 0.00127563393 -0.00021106466 -0.999999166
vn 0.153230131 -0.0304027945 -0.987722754
vn -0.163151532 0.0159645732 -0.986471832
vn 0.000697705022 -0.000184293021 -0.999999762
vn 0.149788082 -0.0453047231 -0.987679601
vn -0.160794422 0.0319966078 -0.98646915
vn 0.00154707895 -0.000502447772 -0.999998689
vn 0.144940376 -0.0599614084 -0.987621844
vn -0.156779408 0.0475581624 -0.986487925
vn 0.00108029891 -0.000465697725 -0.999999285
vn 0.138602138 -0.0739580169 -0.987582743
vn -0.151321575 0.0627449825 -0.986491203
vn 0.0016926931 -0.000960105448 -0.999998093
vn 0.130919978 -0.0874059498 -0.987532437
vn -0.144406274 0.0771382898 -0.986507297
vn 0.0012872665 -0.000902974163 -0.999998808
vn 0.121901862 -0.0999241695 -0.987499416
vn -0.136115536 0.0909611583 -0.98650825
vn 0.00165996363 -0.00144504907 -0.999997616
vn 0.111672305 -0.111604795 -0.987458169
vn -0.126561627 0.103758559 -0.98651731
vn 0.00131282036 -0.00135269342 -0.999998212
vn 0.100309372 -0.122120455 -0.987433374
vn -0.115715243 0.115726568 -0.986517727
vn 0.00152220612 -0.00186321826 -0.999997139
vn 0.087934427 -0.13154307 -0.987402558
vn -0.103767753 0.126479179 -0.986526906
vn 0.00116826314 -0.00178383931 -0.999997735
vn 0.0746694058 -0.139607877 -0.987387478
vn -0.0908771679 0.136017233 -0.986529589
vn 0.00118846016 -0.002261688 -0.999996781
vn 0.0606491938 -0.146375224 -0.987368166
vn -0.077109009 0.14422816 -0.986535609
vn 0.000863352907 -0.00211044261 -0.999997377
vn 0.0460144877 -0.151640758 -0.987363994
vn -0.06258481 0.151100978 -0.986535132
vn 0.000757090864 -0.00251625269 -0.999996543
vn 0.0309249312 -0.155469447 -0.987356544
vn -0.0474739708 0.156483814 -0.986538887
vn 0.000454817578 -0.002285294 -0.999997258
vn 0.0155188302 -0.15770708 -0.987363994
vn -0.0319043659 0.160395861 -0.98653698
vn 0.000263964233 -0.00261449534 -0.999996543
vn -1.69144041E-05 -0.158443034 -0.987368047
vn -0.0160228163 0.162739977 -0.986538887
vn 1.04468345E-05 -0.00228016125 -0.999997377
vn -0.0155596295 -0.157556459 -0.987387359
vn -0 0.163549736 -0.986535013
vn -0.000232035949 -0.0025443905 -0.999996781
vn -0.0309012979 -0.155182153 -0.987402439
vn 0.0160462949 0.16275841 -0.98653549
vn -0.000396246644 -0.00209533214 -0.999997735
vn -0.0459404252 -0.151212588 -0.987433136
vn 0.0319087319 0.160441622 -0.986529469
vn -0.000671667396 -0.00231726281 -0.999997139
vn -0.0604627915 -0.145846084 -0.987457931
vn 0.0475117713 0.156536058 -0.986528873
vn -0.000697756535 -0.00175981212 -0.999998212
vn -0.0743838474 -0.138969362 -0.987499177
vn 0.0626152456 0.151185602 -0.98652029
vn -0.00100452709 -0.00196478027 -0.999997616
vn -0.0875063315 -0.130855143 -0.987532079
vn 0.0771729648 0.144306257 -0.986519158
vn -0.000843486574 -0.00132703991 -0.999998808
vn -0.0997503772 -0.121370912 -0.987582445
vn 0.0909463987 0.13612771 -0.986508012
vn -0.00119636708 -0.00153518363 -0.999998093
vn -0.110962696 -0.110865176 -0.987621486
vn 0.103896007 0.126529768 -0.986506939
vn -0.000807126227 -0.000865547336 -0.999999285
vn -0.121050552 -0.0991791338 -0.987679303
vn 0.115818903 0.115834363 -0.986492932
vn -0.00123272301 -0.00108423945 -0.999998689
vn -0.129933551 -0.0867286101 -0.987722278
vn 0.126655892 0.103879564 -0.986492455
vn -0.000591519114 -0.000449179031 -0.999999762
vn -0.13748607 -0.0733310059 -0.987785459
vn 0.136276871 0.0910717621 -0.986475885
vn -0.00112783106 -0.000644646469 -0.999999166
vn -0.143725485 -0.0594486594 -0.987830341
vn 0.144563824 0.077265054 -0.986474216
vn -0.000220062255 -0.000141130877 -1
vn -0.148475528 -0.044888705 -0.9878968
vn 0.151544139 0.062785238 -0.986454427
vn -0.000878409366 -0.000358125311 -0.999999523
vn -0.15186955 -0.0301295538 -0.987941206
vn 0.156987727 0.0475101545 -0.986457169
vn 0.000230991034 0 -1
vn -0.153669193 -0.0149896638 -0.988008618
vn 0.160979286 0.0320335701 -0.986437798
vn -0.000584194204 -0.000121593126 -0.999999881
vn -0.154130131 7.44917561E-05 -0.98805052
vn 0.163326517 0.0160273425 -0.986441851
vn 0.000714659516 -4.39521646E-05 -0.999999762
vn -0.1529506 0.0152045405 -0.98811686
vn 0.164252296 1.20981804E-05 -0.986418307
vn -0.00025011375 -3.71464157E-05 -1
vn -0.150501519 0.0300066527 -0.988154292
vn 0.163417503 -0.0161528196 -0.986424685
vn 0.00115064241 -0.000269884476 -0.999999285
vn -0.146428525 0.0445531756 -0.988217413
vn 0.161208719 -0.0320548043 -0.986399651
vn 5.98028273E-05 -7.74876244E-05 -1
vn -0.141196012 0.0585508607 -0.988248706
vn 0.157220095 -0.0477480218 -0.986408591
vn 0.00147244579 -0.000648230664 -0.999998689
vn -0.134420246 0.0719775259 -0.98830682
vn 0.151952788 -0.0629301593 -0.986382365
vn 0.000303125766 -0.000218511297 -1
vn -0.126625091 0.0846691281 -0.988330603
vn 0.144963741 -0.0775385126 -0.986394107
vn 0.00163061416 -0.0011249102 -0.999998093
vn -0.117430508 0.0964932069 -0.988382041
vn 0.136830717 -0.0914172903 -0.986367166
vn 0.000450063497 -0.000422307989 -0.999999881
vn -0.107376374 0.107431844 -0.988397062
vn 0.127113819 -0.104370497 -0.98638165
vn 0.00159955246 -0.00163168658 -0.999997377
vn -0.0961255133 0.117238581 -0.988440752
vn 0.116418384 -0.116409235 -0.986354768
vn 0.000511651859 -0.000633406686 -0.999999642
vn -0.0841868967 0.126042902 -0.988446116
vn 0.104400754 -0.127181277 -0.986369848
vn 0.00138636376 -0.00210224371 -0.999996901
vn -0.0713063106 0.133495748 -0.988480806
vn 0.0915095955 -0.136945486 -0.986342728
vn 0.000408291584 -0.000854297308 -0.999999523
vn -0.0636974201 0.137491047 -0.988452733
vn 0.0775250345 -0.145181581 -0.986363113
vn 0.000959737285 -0.00224506482 -0.99999702
vn 0.0691619888 -0.14963837 -0.986318827
vn 0.0147913462 0.150618121 0.988481402
vn -2.7951879E-05 -0.00244599977 0.99999702
vn 0.00623291172 0.151397496 0.988453329
vn -7.43220735E-05 -0.000941118691 0.999999642
vn -0.00663376739 -0.164720252 0.986317992
vn 0.0295431726 0.14866206 0.988446712
vn -0.0161137544 -0.16378516 0.986364424
vn -0.000475911802 -0.00246908842 0.999996901
vn 0.0439418778 0.145096898 0.988441229
vn -0.0321354195 -0.161529168 0.986344576
vn -0.000207185934 -0.000785913202 0.999999642
vn 0.0580887794 0.140342429 0.988397539
vn -0.0477348901 -0.157459542 0.986370981
vn -0.00085580023 -0.00212350977 0.999997377
vn 0.0715634078 0.134084344 0.988382518
vn -0.0630118176 -0.152104393 0.986353695
vn -0.000275164872 -0.00054916006 0.999999881
vn 0.0845828727 0.126679316 0.988330901
vn -0.077537626 -0.145040378 0.986382842
vn -0.00107443507 -0.00165995129 0.999998093
vn 0.096641466 0.117937393 0.988307297
vn -0.0914262757 -0.136812419 0.986368895
vn -0.000177404931 -0.000331345596 1
vn 0.10803958 0.108126201 0.988249063
vn -0.104215167 -0.127137408 0.986395121
vn -0.00111625926 -0.00116501993 0.999998689
vn 0.118230499 0.0971970558 0.988217771
vn -0.116309665 -0.116293997 0.986381233
vn -3.00563552E-05 -9.67265587E-05 1
vn 0.127560452 0.0853166357 0.988154531
vn -0.126986653 -0.104282789 0.98640728
vn -0.000964115257 -0.000691405206 0.999999285
vn 0.135488003 0.0725788549 0.988117099
vn -0.136677787 -0.0913100243 0.986398399
vn 0.000240663925 6.01779939E-05 1
vn 0.142368004 0.059052445 0.98805064
vn -0.144804716 -0.0774630085 0.986423433
vn -0.00064839737 -0.000314869714 0.999999762
vn 0.147707298 0.0449586362 0.988008738
vn -0.151762664 -0.0628475696 0.986416817
vn 0.000581304659 0.000110825131 0.999999881
vn 0.151838824 0.0302826911 0.987941206
vn -0.157036617 -0.0476964936 0.986440361
vn -0.000217984998 -8.9210509E-05 1
vn 0.154351726 0.01534821 0.9878968
vn -0.160993919 -0.0320095494 0.986436188
vn 0.000947681721 3.05989743E-05 0.999999523
vn 0.155535549 7.87744648E-05 0.987830341
vn -0.163221017 -0.0161324572 0.986457646
vn 0.000266960124 -2.08197725E-05 1
vn 0.155083999 -0.0151346596 0.987785339
vn -0.164016247 6.33184754E-05 0.986457646
vn 0.00130468735 -0.000164525161 0.999999166
vn 0.15323396 -0.0304027852 0.987722218
vn -0.163095921 0.0160595439 0.986479461
vn 0.000734325906 -0.000190723687 0.999999762
vn 0.14979206 -0.0453051366 0.987679064
vn -0.160724044 0.0319835469 0.986481071
vn 0.00155623211 -0.000554779544 0.999998689
vn 0.1449444 -0.059962444 0.987621129
vn -0.156764597 0.0474523418 0.986495376
vn 0.00106928486 -0.000512723986 0.999999285
vn 0.138606191 -0.0739595518 0.987582088
vn -0.151348293 0.0626503378 0.986493051
vn 0.00168866396 -0.000957265787 0.999998093
vn 0.130923852 -0.0874079615 0.987531722
vn -0.144418806 0.0771457255 0.986504734
vn 0.00128338079 -0.000899851904 0.999998808
vn 0.121905446 -0.0999267027 0.987498701
vn -0.136127546 0.0909696668 0.986505926
vn 0.00169695681 -0.00141262531 0.999997616
vn 0.11167565 -0.111607708 0.987457454
vn -0.126490459 0.103827149 0.986519158
vn 0.00132070691 -0.00136061339 0.999998212
vn 0.10031227 -0.122123696 0.987432659
vn -0.115702309 0.115713768 0.986520886
vn 0.00148982939 -0.00189972727 0.999997139
vn 0.0879368186 -0.131546721 0.987401903
vn -0.103836916 0.126408204 0.986528754
vn 0.00116540794 -0.00177971646 0.999997735
vn 0.0746712834 -0.139611632 0.987386763
vn -0.0908854827 0.136029467 0.986527145
vn 0.00118596177 -0.00225736853 0.999996781
vn 0.0606505983 -0.146378964 0.98736763
vn -0.0771161094 0.144240975 0.986533165
vn 0.000861210981 -0.00210584467 0.999997497
vn 0.0460153706 -0.151644453 0.987363398
vn -0.0625906512 0.151114285 0.986532807
vn 0.000755301735 -0.0025115395 0.999996543
vn 0.0309252534 -0.155473024 0.987356007
vn -0.0474785566 0.156497389 0.986536562
vn 0.000453333196 -0.00228040735 0.999997377
vn 0.0155186905 -0.157710359 0.987363517
vn -0.0319077224 0.160409555 0.986534655
vn 0.000262871676 -0.00260947389 0.999996543
vn -1.74590841E-05 -0.158445954 0.98736769
vn -0.0160248913 0.162753686 0.986536562
vn -0 -0.0022750583 0.999997497
vn -0.0155605301 -0.157558978 0.987387002
vn -0 0.163563251 0.986532807
vn -0.000232330291 -0.00253926124 0.999996781
vn -0.030902436 -0.155184165 0.987402141
vn 0.0160466544 0.162771538 0.986533284
vn -0.00039613538 -0.00209011789 0.999997735
vn -0.0459416993 -0.151214063 0.987432778
vn 0.0319101624 0.160454303 0.986527383
vn -0.000671110756 -0.00231212098 0.999997139
vn -0.0604641214 -0.145846874 0.987457812
vn 0.0475142635 0.156548128 0.986526787
vn -0.000696793606 -0.00175462605 0.999998212
vn -0.0743850693 -0.13896969 0.987499058
vn 0.0626185983 0.151196972 0.986518323
vn -0.00100312114 -0.00195974833 0.999997616
vn -0.0875073597 -0.130855024 0.98753196
vn 0.0771771446 0.144316852 0.98651731
vn -0.000841613044 -0.00132219214 0.999998808
vn -0.0997510999 -0.121370174 0.987582445
vn 0.0909513012 0.136137441 0.986506164
vn -0.00119409035 -0.00153047801 0.999998093
vn -0.110963076 -0.110864088 0.987621605
vn 0.103901461 0.12653859 0.98650521
vn -0.000804358977 -0.000861143868 0.999999285
vn -0.121050492 -0.0991777405 0.987679422
vn 0.115824923 0.115842164 0.986491323
vn -0.00122961495 -0.00108011253 0.999998689
vn -0.129933015 -0.0867269486 0.987722516
vn 0.12666221 0.103886522 0.986490965
vn -0.000588045339 -0.00044533037 0.999999762
vn -0.137484968 -0.0733290538 0.987785816
vn 0.136283353 0.0910778195 0.986474335
vn -0.00111240323 -0.000689701934 0.999999166
vn -0.143723831 -0.0594467297 0.987830698
vn 0.144594267 0.0771707669 0.986477137
vn -0.000230706893 -0.000144764184 1
vn -0.148473352 -0.0448870361 0.987897277
vn 0.151520252 0.0627765059 0.986458719
vn -0.000900454645 -0.000313290075 0.999999523
vn -0.151866838 -0.0301281698 0.987941682
vn 0.156940714 0.0475993939 0.986460328
vn 0.000235581945 0 1
vn -0.153665975 -0.0149885053 0.988009155
vn 0.160985708 0.0320361517 0.986436665
vn -0.000579461921 -0.000120094744 0.999999881
vn -0.15412648 7.546899E-05 0.988051057
vn 0.16333276 0.0160291586 0.986440837
vn 0.000719497679 -4.28641179E-05 0.999999762
vn -0.152946636 0.0152049297 0.988117516
vn 0.164258316 1.3268861E-05 0.986417413
vn -0.000245242292 -3.66826607E-05 1
vn -0.150497317 0.0300064683 0.988154888
vn 0.16342321 -0.0161522999 0.98642379
vn 0.00115550426 -0.000270072458 0.999999285
vn -0.146424159 0.0445526242 0.988218129
vn 0.161214083 -0.0320549868 0.986398697
vn 6.45636173E-05 -7.81295603E-05 1
vn -0.141191617 0.0585497692 0.988249302
vn 0.157225147 -0.0477487408 0.986407757
vn 0.00147703825 -0.000649411173 0.999998689
vn -0.134415925 0.071975857 0.988307655
vn 0.151957482 -0.0629314184 0.986381531
vn 0.00030753325 -0.000220225033 1
vn -0.126620904 0.0846668258 0.988331258
vn 0.144968122 -0.0775402412 0.986393273
vn 0.00163476705 -0.00112709589 0.999998093
vn -0.117426641 0.09649048 0.988382757
vn 0.136834741 -0.0914193243 0.98636651
vn 0.000453836779 -0.000424889964 0.999999881
vn -0.107372835 0.10742867 0.988397777
vn 0.127117395 -0.104372866 0.986380994
vn 0.00160293654 -0.00163471757 0.999997377
vn -0.0961224735 0.117235057 0.988441467
vn 0.116421528 -0.116412051 0.986354053
vn 0.000469327293 -0.000657524157 0.999999762
vn -0.0841843039 0.126039088 0.988446832
vn 0.104310848 -0.127226904 0.986373425
vn 0.00137961016 -0.00209254539 0.999996901
vn -0.0713042766 0.133491769 0.988481522
vn 0.0914933383 -0.136921495 0.986347556
vn 0.000446540595 -0.000824327406 0.999999642
vn -0.0636958033 0.137487113 0.988453448
vn 0.077600956 -0.145116255 0.986366689
vn 0.000961377518 -0.00224925671 0.99999702
vn 0.069163613 -0.149642721 0.986318111
g SwordTrail_0
f 3/3/3 2/2/2 1/1/1
f 4/4/4 3/3/3 1/1/1
f 5/5/5 3/3/3 4/4/4
f 4/4/4 1/1/1 6/6/6
f 7/7/7 5/5/5 4/4/4
f 8/8/8 4/4/4 6/6/6
f 7/7/7 4/4/4 8/8/8
f 8/8/8 6/6/6 9/9/9
f 10/10/10 7/7/7 8/8/8
f 11/11/11 8/8/8 9/9/9
f 10/10/10 8/8/8 11/11/11
f 11/11/11 9/9/9 12/12/12
f 13/13/13 10/10/10 11/11/11
f 14/14/14 11/11/11 12/12/12
f 13/13/13 11/11/11 14/14/14
f 14/14/14 12/12/12 15/15/15
f 16/16/16 13/13/13 14/14/14
f 17/17/17 14/14/14 15/15/15
f 16/16/16 14/14/14 17/17/17
f 17/17/17 15/15/15 18/18/18
f 19/19/19 16/16/16 17/17/17
f 20/20/20 17/17/17 18/18/18
f 19/19/19 17/17/17 20/20/20
f 20/20/20 18/18/18 21/21/21
f 22/22/22 19/19/19 20/20/20
f 23/23/23 20/20/20 21/21/21
f 22/22/22 20/20/20 23/23/23
f 23/23/23 21/21/21 24/24/24
f 25/25/25 22/22/22 23/23/23
f 26/26/26 23/23/23 24/24/24
f 25/25/25 23/23/23 26/26/26
f 26/26/26 24/24/24 27/27/27
f 28/28/28 25/25/25 26/26/26
f 29/29/29 26/26/26 27/27/27
f 28/28/28 26/26/26 29/29/29
f 29/29/29 27/27/27 30/30/30
f 31/31/31 28/28/28 29/29/29
f 32/32/32 29/29/29 30/30/30
f 31/31/31 29/29/29 32/32/32
f 32/32/32 30/30/30 33/33/33
f 34/34/34 31/31/31 32/32/32
f 35/35/35 32/32/32 33/33/33
f 34/34/34 32/32/32 35/35/35
f 35/35/35 33/33/33 36/36/36
f 37/37/37 34/34/34 35/35/35
f 38/38/38 35/35/35 36/36/36
f 37/37/37 35/35/35 38/38/38
f 38/38/38 36/36/36 39/39/39
f 40/40/40 37/37/37 38/38/38
f 41/41/41 38/38/38 39/39/39
f 40/40/40 38/38/38 41/41/41
f 41/41/41 39/39/39 42/42/42
f 43/43/43 40/40/40 41/41/41
f 44/44/44 41/41/41 42/42/42
f 43/43/43 41/41/41 44/44/44
f 44/44/44 42/42/42 45/45/45
f 46/46/46 43/43/43 44/44/44
f 47/47/47 44/44/44 45/45/45
f 46/46/46 44/44/44 47/47/47
f 47/47/47 45/45/45 48/48/48
f 49/49/49 46/46/46 47/47/47
f 50/50/50 47/47/47 48/48/48
f 49/49/49 47/47/47 50/50/50
f 50/50/50 48/48/48 51/51/51
f 52/52/52 49/49/49 50/50/50
f 53/53/53 50/50/50 51/51/51
f 52/52/52 50/50/50 53/53/53
f 53/53/53 51/51/51 54/54/54
f 55/55/55 52/52/52 53/53/53
f 56/56/56 53/53/53 54/54/54
f 55/55/55 53/53/53 56/56/56
f 56/56/56 54/54/54 57/57/57
f 58/58/58 55/55/55 56/56/56
f 59/59/59 56/56/56 57/57/57
f 58/58/58 56/56/56 59/59/59
f 59/59/59 57/57/57 60/60/60
f 61/61/61 58/58/58 59/59/59
f 62/62/62 59/59/59 60/60/60
f 61/61/61 59/59/59 62/62/62
f 62/62/62 60/60/60 63/63/63
f 64/64/64 61/61/61 62/62/62
f 65/65/65 62/62/62 63/63/63
f 64/64/64 62/62/62 65/65/65
f 65/65/65 63/63/63 66/66/66
f 67/67/67 64/64/64 65/65/65
f 68/68/68 65/65/65 66/66/66
f 67/67/67 65/65/65 68/68/68
f 68/68/68 66/66/66 69/69/69
f 70/70/70 67/67/67 68/68/68
f 71/71/71 68/68/68 69/69/69
f 70/70/70 68/68/68 71/71/71
f 71/71/71 69/69/69 72/72/72
f 73/73/73 70/70/70 71/71/71
f 74/74/74 71/71/71 72/72/72
f 73/73/73 71/71/71 74/74/74
f 74/74/74 72/72/72 75/75/75
f 76/76/76 73/73/73 74/74/74
f 77/77/77 74/74/74 75/75/75
f 76/76/76 74/74/74 77/77/77
f 77/77/77 75/75/75 78/78/78
f 79/79/79 76/76/76 77/77/77
f 80/80/80 77/77/77 78/78/78
f 79/79/79 77/77/77 80/80/80
f 80/80/80 78/78/78 81/81/81
f 82/82/82 79/79/79 80/80/80
f 83/83/83 80/80/80 81/81/81
f 82/82/82 80/80/80 83/83/83
f 83/83/83 81/81/81 84/84/84
f 85/85/85 82/82/82 83/83/83
f 86/86/86 83/83/83 84/84/84
f 85/85/85 83/83/83 86/86/86
f 86/86/86 84/84/84 87/87/87
f 88/88/88 85/85/85 86/86/86
f 89/89/89 86/86/86 87/87/87
f 88/88/88 86/86/86 89/89/89
f 89/89/89 87/87/87 90/90/90
f 91/91/91 88/88/88 89/89/89
f 92/92/92 89/89/89 90/90/90
f 91/91/91 89/89/89 92/92/92
f 92/92/92 90/90/90 93/93/93
f 94/94/94 91/91/91 92/92/92
f 95/95/95 92/92/92 93/93/93
f 94/94/94 92/92/92 95/95/95
f 95/95/95 93/93/93 96/96/96
f 97/97/97 94/94/94 95/95/95
f 98/98/98 95/95/95 96/96/96
f 97/97/97 95/95/95 98/98/98
f 98/98/98 96/96/96 99/99/99
f 100/100/100 97/97/97 98/98/98
f 101/101/101 98/98/98 99/99/99
f 100/100/100 98/98/98 101/101/101
f 101/101/101 99/99/99 102/102/102
f 103/103/103 100/100/100 101/101/101
f 104/104/104 101/101/101 102/102/102
f 103/103/103 101/101/101 104/104/104
f 104/104/104 102/102/102 105/105/105
f 106/106/106 103/103/103 104/104/104
f 107/107/107 104/104/104 105/105/105
f 106/106/106 104/104/104 107/107/107
f 107/107/107 105/105/105 108/108/108
f 109/109/109 106/106/106 107/107/107
f 110/110/110 107/107/107 108/108/108
f 109/109/109 107/107/107 110/110/110
f 110/110/110 108/108/108 111/111/111
f 112/112/112 109/109/109 110/110/110
f 113/113/113 110/110/110 111/111/111
f 112/112/112 110/110/110 113/113/113
f 113/113/113 111/111/111 114/114/114
f 115/115/115 112/112/112 113/113/113
f 116/116/116 113/113/113 114/114/114
f 115/115/115 113/113/113 116/116/116
f 116/116/116 114/114/114 117/117/117
f 118/118/118 115/115/115 116/116/116
f 119/119/119 116/116/116 117/117/117
f 118/118/118 116/116/116 119/119/119
f 119/119/119 117/117/117 120/120/120
f 121/121/121 118/118/118 119/119/119
f 122/122/122 119/119/119 120/120/120
f 121/121/121 119/119/119 122/122/122
f 122/122/122 120/120/120 123/123/123
f 124/124/124 121/121/121 122/122/122
f 125/125/125 122/122/122 123/123/123
f 124/124/124 122/122/122 125/125/125
f 125/125/125 123/123/123 126/126/126
f 127/127/127 124/124/124 125/125/125
f 128/128/128 125/125/125 126/126/126
f 127/127/127 125/125/125 128/128/128
f 128/128/128 126/126/126 129/129/129
f 130/130/130 127/127/127 128/128/128
f 131/131/131 128/128/128 129/129/129
f 130/130/130 128/128/128 131/131/131
f 131/131/131 129/129/129 132/132/132
f 133/133/133 130/130/130 131/131/131
f 134/134/134 131/131/131 132/132/132
f 133/133/133 131/131/131 134/134/134
f 134/134/134 132/132/132 135/135/135
f 136/136/136 133/133/133 134/134/134
f 137/137/137 134/134/134 135/135/135
f 136/136/136 134/134/134 137/137/137
f 137/137/137 135/135/135 138/138/138
f 139/139/139 136/136/136 137/137/137
f 140/140/140 137/137/137 138/138/138
f 139/139/139 137/137/137 140/140/140
f 140/140/140 138/138/138 141/141/141
f 142/142/142 139/139/139 140/140/140
f 143/143/143 140/140/140 141/141/141
f 142/142/142 140/140/140 143/143/143
f 143/143/143 141/141/141 144/144/144
f 145/145/145 142/142/142 143/143/143
f 146/146/146 143/143/143 144/144/144
f 145/145/145 143/143/143 146/146/146
f 146/146/146 144/144/144 147/147/147
f 148/148/148 145/145/145 146/146/146
f 149/149/149 146/146/146 147/147/147
f 148/148/148 146/146/146 149/149/149
f 149/149/149 147/147/147 150/150/150
f 151/151/151 148/148/148 149/149/149
f 152/152/152 149/149/149 150/150/150
f 151/151/151 149/149/149 152/152/152
f 152/152/152 150/150/150 153/153/153
f 154/154/154 151/151/151 152/152/152
f 155/155/155 152/152/152 153/153/153
f 154/154/154 152/152/152 155/155/155
f 155/155/155 153/153/153 156/156/156
f 157/157/157 154/154/154 155/155/155
f 158/158/158 155/155/155 156/156/156
f 157/157/157 155/155/155 158/158/158
f 158/158/158 156/156/156 159/159/159
f 160/160/160 157/157/157 158/158/158
f 161/161/161 158/158/158 159/159/159
f 160/160/160 158/158/158 161/161/161
f 161/161/161 159/159/159 162/162/162
f 163/163/163 160/160/160 161/161/161
f 164/164/164 161/161/161 162/162/162
f 163/163/163 161/161/161 164/164/164
f 164/164/164 162/162/162 165/165/165
f 166/166/166 163/163/163 164/164/164
f 167/167/167 164/164/164 165/165/165
f 166/166/166 164/164/164 167/167/167
f 167/167/167 165/165/165 168/168/168
f 169/169/169 166/166/166 167/167/167
f 170/170/170 167/167/167 168/168/168
f 169/169/169 167/167/167 170/170/170
f 170/170/170 168/168/168 171/171/171
f 172/172/172 169/169/169 170/170/170
f 173/173/173 170/170/170 171/171/171
f 172/172/172 170/170/170 173/173/173
f 173/173/173 171/171/171 174/174/174
f 175/175/175 172/172/172 173/173/173
f 176/176/176 173/173/173 174/174/174
f 175/175/175 173/173/173 176/176/176
f 176/176/176 174/174/174 177/177/177
f 178/178/178 175/175/175 176/176/176
f 179/179/179 176/176/176 177/177/177
f 178/178/178 176/176/176 179/179/179
f 179/179/179 177/177/177 180/180/180
f 181/181/181 178/178/178 179/179/179
f 182/182/182 179/179/179 180/180/180
f 181/181/181 179/179/179 182/182/182
f 183/183/183 181/181/181 182/182/182
f 186/186/186 185/185/185 184/184/184
f 185/185/185 187/187/187 184/184/184
f 185/185/185 188/188/188 187/187/187
f 184/184/184 187/187/187 189/189/189
f 188/188/188 190/190/190 187/187/187
f 187/187/187 191/191/191 189/189/189
f 187/187/187 190/190/190 191/191/191
f 189/189/189 191/191/191 192/192/192
f 190/190/190 193/193/193 191/191/191
f 191/191/191 194/194/194 192/192/192
f 191/191/191 193/193/193 194/194/194
f 192/192/192 194/194/194 195/195/195
f 193/193/193 196/196/196 194/194/194
f 194/194/194 197/197/197 195/195/195
f 194/194/194 196/196/196 197/197/197
f 195/195/195 197/197/197 198/198/198
f 196/196/196 199/199/199 197/197/197
f 197/197/197 200/200/200 198/198/198
f 197/197/197 199/199/199 200/200/200
f 198/198/198 200/200/200 201/201/201
f 199/199/199 202/202/202 200/200/200
f 200/200/200 203/203/203 201/201/201
f 200/200/200 202/202/202 203/203/203
f 201/201/201 203/203/203 204/204/204
f 202/202/202 205/205/205 203/203/203
f 203/203/203 206/206/206 204/204/204
f 203/203/203 205/205/205 206/206/206
f 204/204/204 206/206/206 207/207/207
f 205/205/205 208/208/208 206/206/206
f 206/206/206 209/209/209 207/207/207
f 206/206/206 208/208/208 209/209/209
f 207/207/207 209/209/209 210/210/210
f 208/208/208 211/211/211 209/209/209
f 209/209/209 212/212/212 210/210/210
f 209/209/209 211/211/211 212/212/212
f 210/210/210 212/212/212 213/213/213
f 211/211/211 214/214/214 212/212/212
f 212/212/212 215/215/215 213/213/213
f 212/212/212 214/214/214 215/215/215
f 213/213/213 215/215/215 216/216/216
f 214/214/214 217/217/217 215/215/215
f 215/215/215 218/218/218 216/216/216
f 215/215/215 217/217/217 218/218/218
f 216/216/216 218/218/218 219/219/219
f 217/217/217 220/220/220 218/218/218
f 218/218/218 221/221/221 219/219/219
f 218/218/218 220/220/220 221/221/221
f 219/219/219 221/221/221 222/222/222
f 220/220/220 223/223/223 221/221/221
f 221/221/221 224/224/224 222/222/222
f 221/221/221 223/223/223 224/224/224
f 222/222/222 224/224/224 225/225/225
f 223/223/223 226/226/226 224/224/224
f 224/224/224 227/227/227 225/225/225
f 224/224/224 226/226/226 227/227/227
f 225/225/225 227/227/227 228/228/228
f 226/226/226 229/229/229 227/227/227
f 227/227/227 230/230/230 228/228/228
f 227/227/227 229/229/229 230/230/230
f 228/228/228 230/230/230 231/231/231
f 229/229/229 232/232/232 230/230/230
f 230/230/230 233/233/233 231/231/231
f 230/230/230 232/232/232 233/233/233
f 231/231/231 233/233/233 234/234/234
f 232/232/232 235/235/235 233/233/233
f 233/233/233 236/236/236 234/234/234
f 233/233/233 235/235/235 236/236/236
f 234/234/234 236/236/236 237/237/237
f 235/235/235 238/238/238 236/236/236
f 236/236/236 239/239/239 237/237/237
f 236/236/236 238/238/238 239/239/239
f 237/237/237 239/239/239 240/240/240
f 238/238/238 241/241/241 239/239/239
f 239/239/239 242/242/242 240/240/240
f 239/239/239 241/241/241 242/242/242
f 240/240/240 242/242/242 243/243/243
f 241/241/241 244/244/244 242/242/242
f 242/242/242 245/245/245 243/243/243
f 242/242/242 244/244/244 245/245/245
f 243/243/243 245/245/245 246/246/246
f 244/244/244 247/247/247 245/245/245
f 245/245/245 248/248/248 246/246/246
f 245/245/245 247/247/247 248/248/248
f 246/246/246 248/248/248 249/249/249
f 247/247/247 250/250/250 248/248/248
f 248/248/248 251/251/251 249/249/249
f 248/248/248 250/250/250 251/251/251
f 249/249/249 251/251/251 252/252/252
f 250/250/250 253/253/253 251/251/251
f 251/251/251 254/254/254 252/252/252
f 251/251/251 253/253/253 254/254/254
f 252/252/252 254/254/254 255/255/255
f 253/253/253 256/256/256 254/254/254
f 254/254/254 257/257/257 255/255/255
f 254/254/254 256/256/256 257/257/257
f 255/255/255 257/257/257 258/258/258
f 256/256/256 259/259/259 257/257/257
f 257/257/257 260/260/260 258/258/258
f 257/257/257 259/259/259 260/260/260
f 258/258/258 260/260/260 261/261/261
f 259/259/259 262/262/262 260/260/260
f 260/260/260 263/263/263 261/261/261
f 260/260/260 262/262/262 263/263/263
f 261/261/261 263/263/263 264/264/264
f 262/262/262 265/265/265 263/263/263
f 263/263/263 266/266/266 264/264/264
f 263/263/263 265/265/265 266/266/266
f 264/264/264 266/266/266 267/267/267
f 265/265/265 268/268/268 266/266/266
f 266/266/266 269/269/269 267/267/267
f 266/266/266 268/268/268 269/269/269
f 267/267/267 269/269/269 270/270/270
f 268/268/268 271/271/271 269/269/269
f 269/269/269 272/272/272 270/270/270
f 269/269/269 271/271/271 272/272/272
f 270/270/270 272/272/272 273/273/273
f 271/271/271 274/274/274 272/272/272
f 272/272/272 275/275/275 273/273/273
f 272/272/272 274/274/274 275/275/275
f 273/273/273 275/275/275 276/276/276
f 274/274/274 277/277/277 275/275/275
f 275/275/275 278/278/278 276/276/276
f 275/275/275 277/277/277 278/278/278
f 276/276/276 278/278/278 279/279/279
f 277/277/277 280/280/280 278/278/278
f 278/278/278 281/281/281 279/279/279
f 278/278/278 280/280/280 281/281/281
f 279/279/279 281/281/281 282/282/282
f 280/280/280 283/283/283 281/281/281
f 281/281/281 284/284/284 282/282/282
f 281/281/281 283/283/283 284/284/284
f 282/282/282 284/284/284 285/285/285
f 283/283/283 286/286/286 284/284/284
f 284/284/284 287/287/287 285/285/285
f 284/284/284 286/286/286 287/287/287
f 285/285/285 287/287/287 288/288/288
f 286/286/286 289/289/289 287/287/287
f 287/287/287 290/290/290 288/288/288
f 287/287/287 289/289/289 290/290/290
f 288/288/288 290/290/290 291/291/291
f 289/289/289 292/292/292 290/290/290
f 290/290/290 293/293/293 291/291/291
f 290/290/290 292/292/292 293/293/293
f 291/291/291 293/293/293 294/294/294
f 292/292/292 295/295/295 293/293/293
f 293/293/293 296/296/296 294/294/294
f 293/293/293 295/295/295 296/296/296
f 294/294/294 296/296/296 297/297/297
f 295/295/295 298/298/298 296/296/296
f 296/296/296 299/299/299 297/297/297
f 296/296/296 298/298/298 299/299/299
f 297/297/297 299/299/299 300/300/300
f 298/298/298 301/301/301 299/299/299
f 299/299/299 302/302/302 300/300/300
f 299/299/299 301/301/301 302/302/302
f 300/300/300 302/302/302 303/303/303
f 301/301/301 304/304/304 302/302/302
f 302/302/302 305/305/305 303/303/303
f 302/302/302 304/304/304 305/305/305
f 303/303/303 305/305/305 306/306/306
f 304/304/304 307/307/307 305/305/305
f 305/305/305 308/308/308 306/306/306
f 305/305/305 307/307/307 308/308/308
f 306/306/306 308/308/308 309/309/309
f 307/307/307 310/310/310 308/308/308
f 308/308/308 311/311/311 309/309/309
f 308/308/308 310/310/310 311/311/311
f 309/309/309 311/311/311 312/312/312
f 310/310/310 313/313/313 311/311/311
f 311/311/311 314/314/314 312/312/312
f 311/311/311 313/313/313 314/314/314
f 312/312/312 314/314/314 315/315/315
f 313/313/313 316/316/316 314/314/314
f 314/314/314 317/317/317 315/315/315
f 314/314/314 316/316/316 317/317/317
f 315/315/315 317/317/317 318/318/318
f 316/316/316 319/319/319 317/317/317
f 317/317/317 320/320/320 318/318/318
f 317/317/317 319/319/319 320/320/320
f 318/318/318 320/320/320 321/321/321
f 319/319/319 322/322/322 320/320/320
f 320/320/320 323/323/323 321/321/321
f 320/320/320 322/322/322 323/323/323
f 321/321/321 323/323/323 324/324/324
f 322/322/322 325/325/325 323/323/323
f 323/323/323 326/326/326 324/324/324
f 323/323/323 325/325/325 326/326/326
f 324/324/324 326/326/326 327/327/327
f 325/325/325 328/328/328 326/326/326
f 326/326/326 329/329/329 327/327/327
f 326/326/326 328/328/328 329/329/329
f 327/327/327 329/329/329 330/330/330
f 328/328/328 331/331/331 329/329/329
f 329/329/329 332/332/332 330/330/330
f 329/329/329 331/331/331 332/332/332
f 330/330/330 332/332/332 333/333/333
f 331/331/331 334/334/334 332/332/332
f 332/332/332 335/335/335 333/333/333
f 332/332/332 334/334/334 335/335/335
f 333/333/333 335/335/335 336/336/336
f 334/334/334 337/337/337 335/335/335
f 335/335/335 338/338/338 336/336/336
f 335/335/335 337/337/337 338/338/338
f 336/336/336 338/338/338 339/339/339
f 337/337/337 340/340/340 338/338/338
f 338/338/338 341/341/341 339/339/339
f 338/338/338 340/340/340 341/341/341
f 339/339/339 341/341/341 342/342/342
f 340/340/340 343/343/343 341/341/341
f 341/341/341 344/344/344 342/342/342
f 341/341/341 343/343/343 344/344/344
f 342/342/342 344/344/344 345/345/345
f 343/343/343 346/346/346 344/344/344
f 344/344/344 347/347/347 345/345/345
f 344/344/344 346/346/346 347/347/347
f 345/345/345 347/347/347 348/348/348
f 346/346/346 349/349/349 347/347/347
f 347/347/347 350/350/350 348/348/348
f 347/347/347 349/349/349 350/350/350
f 348/348/348 350/350/350 351/351/351
f 349/349/349 352/352/352 350/350/350
f 350/350/350 353/353/353 351/351/351
f 350/350/350 352/352/352 353/353/353
f 351/351/351 353/353/353 354/354/354
f 352/352/352 355/355/355 353/353/353
f 353/353/353 356/356/356 354/354/354
f 353/353/353 355/355/355 356/356/356
f 354/354/354 356/356/356 357/357/357
f 355/355/355 358/358/358 356/356/356
f 356/356/356 359/359/359 357/357/357
f 356/356/356 358/358/358 359/359/359
f 357/357/357 359/359/359 360/360/360
f 358/358/358 361/361/361 359/359/359
f 359/359/359 362/362/362 360/360/360
f 359/359/359 361/361/361 362/362/362
f 360/360/360 362/362/362 363/363/363
f 361/361/361 364/364/364 362/362/362
f 362/362/362 365/365/365 363/363/363
f 362/362/362 364/364/364 365/365/365
f 364/364/364 366/366/366 365/365/365
