g TrailThin
v 0.0980087817 0.995945513 -1.89826594E-07
v -8.52987441E-08 0.857490659 -1.77185058E-07
v -1.19209261E-07 1 -2.06632066E-07
v 0.0840336978 0.854053855 -1.62784062E-07
v 0.00111913914 0.452575743 -9.33343216E-08
v 0.195090204 0.980785251 -1.70877428E-07
v 0.0460082255 0.45081237 -8.56565947E-08
v 0.16728805 0.841014206 -1.46525807E-07
v 0.290369332 0.95768255 -1.50580732E-07
v 0.0905098915 0.443771482 -7.69514799E-08
v 0.248981014 0.821243763 -1.29131124E-07
v 0.382683367 0.923879504 -1.28556081E-07
v 0.134148166 0.433280259 -6.76740726E-08
v 0.328147382 0.792218029 -1.10235632E-07
v 0.471568942 0.882627368 -1.05550747E-07
v 0.176465422 0.417697191 -5.75597525E-08
v 0.404358 0.756884515 -9.05182986E-08
v 0.555570126 0.831469655 -8.12943881E-08
v 0.217174158 0.39888975 -4.70412331E-08
v 0.476396173 0.712977469 -6.97091878E-08
v 0.63464421 0.773663878 -5.64670657E-08
v 0.255682468 0.375354797 -3.59043568E-08
v 0.544193566 0.663449407 -4.84294986E-08
v 0.70710665 0.707106888 -3.0908609E-08
v 0.291895598 0.348962516 -2.45509995E-08
v 0.606337368 0.606337488 -2.65038338E-08
v 0.773328483 0.634979725 -5.2159308E-09
v 0.325116813 0.318371534 -1.28174946E-08
v 0.663114011 0.544528961 -4.48211779E-09
v 0.831469595 0.555570304 2.06650128E-08
v 0.355440974 0.285417169 -1.06762954E-09
v 0.71297735 0.476396352 1.77200405E-08
v 0.882291973 0.471904397 4.62330689E-08
v 0.382100105 0.248937204 1.0813622E-08
v 0.75654912 0.404693455 3.9634898E-08
v 0.923879504 0.382683516 7.14444326E-08
v 0.405368209 0.210695744 2.25063914E-08
v 0.79221797 0.32814756 6.12629236E-08
v 0.957347333 0.290704787 9.59027773E-08
v 0.4244425 0.169720158 3.40808484E-08
v 0.820908368 0.249316499 8.22262081E-08
v 0.980785251 0.195090473 1.19478287E-07
v 0.439758718 0.127669752 4.52651427E-08
v 0.841014147 0.167288274 1.02451523E-07
v 0.995610237 0.0983443409 1.41884428E-07
v 0.45051682 0.0837646797 5.60900588E-08
v 0.85371846 0.0843692422 1.21655049E-07
v 1 1.94707198E-07 1.62920685E-07
v 0.457290888 0.0395298302 6.63340316E-08
v 0.857490599 2.07572612E-07 1.39702948E-07
v 0.995610297 -0.0977846533 1.82411E-07
v 0.459321082 -0.00562605029 7.59954446E-08
v 0.853718519 -0.0838095248 1.56406159E-07
v 0.98078531 -0.195090085 2.00102122E-07
v 0.457290947 -0.0503368415 8.49033768E-08
v 0.841014206 -0.167287886 1.71585683E-07
v 0.957347393 -0.290145099 2.15924999E-07
v 0.45051688 -0.0950167775 9.30320425E-08
v 0.820908427 -0.248756826 1.85144131E-07
v 0.923879564 -0.382683188 2.29593724E-07
v 0.439758778 -0.138476774 1.00259555E-07
v 0.792218029 -0.328147203 1.96874453E-07
v 0.882292092 -0.471344799 2.41138594E-07
v 0.424442559 -0.180972293 1.06545166E-07
v 0.756549239 -0.404133856 2.06764554E-07
v 0.831469715 -0.555570066 2.50262246E-07
v 0.405368268 -0.221502766 1.11812462E-07
v 0.712977469 -0.476396084 2.14597506E-07
v 0.773328602 -0.634420156 2.57082775E-07
v 0.382100165 -0.260189384 1.16015499E-07
v 0.66311413 -0.543969512 2.20436561E-07
v 0.707106888 -0.70710665 2.61313261E-07
v 0.355441034 -0.296224207 1.19118127E-07
v 0.606337488 -0.606337309 2.24073659E-07
v 0.634644449 -0.773104429 2.63144869E-07
v 0.325116873 -0.329623759 1.21079097E-07
v 0.544193685 -0.662889898 2.25634722E-07
v 0.555570304 -0.831469595 2.62322203E-07
v 0.291895688 -0.359769613 1.21895781E-07
v 0.476396322 -0.71297729 2.24938788E-07
v 0.471569002 -0.882067978 2.59091877E-07
v 0.255682558 -0.386607051 1.21541404E-07
v 0.404358089 -0.756325066 2.22159315E-07
v 0.382683367 -0.923879623 2.53250164E-07
v 0.217174202 -0.409696937 1.20038692E-07
v 0.328147411 -0.792218089 2.17159652E-07
v 0.290369272 -0.957123399 2.45079548E-07
v 0.176465422 -0.428949535 1.17384594E-07
v 0.248981014 -0.820684433 2.10143867E-07
v 0.195090204 -0.98078531 2.34445906E-07
v 0.134148166 -0.444087446 1.13618206E-07
v 0.16728802 -0.841014147 2.01035164E-07
v 0.098008737 -0.995386243 2.21646346E-07
v 0.0905098915 -0.455023825 1.0876844E-07
v 0.0840336606 -0.853494406 1.90050116E-07
v -2.06632109E-07 -1 2.06632009E-07
v 0.0460081957 -0.461619526 1.02881074E-07
v -1.60262999E-07 -0.85749054 1.77185001E-07
v -0.0981204063 -0.995386124 1.89692827E-07
v 0.00111909898 -0.463827968 9.60240456E-08
v -0.0841452256 -0.853494346 1.62650295E-07
v -0.195090607 -0.980785191 1.70877342E-07
v -0.0438585393 -0.461619496 8.8239922E-08
v -0.167288363 -0.841014028 1.46525721E-07
v -0.290480971 -0.95712316 1.50446951E-07
v -0.0882716849 -0.455023736 7.96411967E-08
v -0.249092609 -0.820684254 1.28997328E-07
v -0.382683784 -0.923879325 1.28555968E-07
v -0.131998509 -0.444087356 7.02573857E-08
v -0.328147709 -0.792217791 1.10235533E-07
v -0.471680641 -0.8820678 1.0541693E-07
v -0.174227223 -0.428949386 6.02494694E-08
v -0.404469609 -0.756324947 9.03844892E-08
v -0.555570602 -0.831469357 8.12942602E-08
v -0.215024561 -0.409696817 4.9624532E-08
v -0.47639659 -0.712977111 6.97090456E-08
v -0.634755969 -0.773104191 5.63331994E-08
v -0.253444314 -0.386606932 3.85940453E-08
v -0.544305265 -0.662889659 4.82956395E-08
v -0.707107127 -0.707106471 3.09084456E-08
v -0.289745957 -0.359769493 2.71342877E-08
v -0.606337726 -0.60633707 2.65036917E-08
v -0.773440182 -0.634419918 5.08205034E-09
v -0.322878659 -0.32962361 1.5507176E-08
v -0.663225532 -0.543969214 4.34828706E-09
v -0.831469953 -0.555569768 -2.06651762E-08
v -0.353291333 -0.296224117 3.65091068E-09
v -0.712977648 -0.476395816 -1.77201969E-08
v -0.882403553 -0.471344411 -4.63669636E-08
v -0.379861891 -0.260189235 -8.12394418E-09
v -0.75666064 -0.404133528 -3.97687714E-08
v -0.923879862 -0.38268277 -7.14446386E-08
v -0.403218567 -0.221502587 -1.9923128E-08
v -0.792218268 -0.328146845 -6.12631084E-08
v -0.957458794 -0.290144622 -9.60366862E-08
v -0.422204286 -0.180972114 -3.13911812E-08
v -0.821019888 -0.248756424 -8.23600885E-08
v -0.980785429 -0.195089579 -1.194785E-07
v -0.437609017 -0.138476536 -4.26818829E-08
v -0.841014266 -0.167287424 -1.024517E-07
v -0.995721638 -0.0977840722 -1.42018379E-07
v -0.448278517 -0.095016554 -5.34003952E-08
v -0.853829801 -0.083809033 -1.21788943E-07
v -1 8.46389867E-07 -1.62920898E-07
v -0.455141038 -0.0503365695 -6.37507611E-08
v -0.857490599 7.66384346E-07 -1.39703147E-07
v -0.995721519 0.0983450711 -1.82544909E-07
v -0.457082659 -0.0056257532 -7.33057774E-08
v -0.853829622 0.084369868 -1.56540068E-07
v -0.980785072 0.195091233 -2.00102306E-07
v -0.455140948 0.0395301729 -8.23200921E-08
v -0.841013968 0.167288959 -1.71585867E-07
v -0.957458258 0.290705621 -2.16058879E-07
v -0.448278368 0.0837650225 -9.03423754E-08
v -0.821019411 0.249317214 -1.85278012E-07
v -0.923879087 0.38268438 -2.29593908E-07
v -0.437608778 0.127670124 -9.76762777E-08
v -0.792217612 0.328148276 -1.96874623E-07
v -0.882402718 0.471905231 -2.41272431E-07
v -0.422203958 0.169720545 -1.03855477E-07
v -0.756659985 0.40469417 -2.06898363E-07
v -0.831468999 0.555571139 -2.50262332E-07
v -0.40321821 0.210696116 -1.0922917E-07
v -0.712976813 0.476397067 -2.14597591E-07
v -0.77343905 0.63498044 -2.57216556E-07
v -0.379861444 0.248937622 -1.13325783E-07
v -0.663224578 0.544529676 -2.20570314E-07
v -0.707105994 0.707107544 -2.61313289E-07
v -0.353290826 0.285417527 -1.16534807E-07
v -0.606336653 0.606338143 -2.24073688E-07
v -0.634754717 0.773664594 -2.63278594E-07
v -0.322878063 0.318371892 -1.18389366E-07
v -0.544304013 0.663450003 -2.25768446E-07
v -0.555569232 0.831470311 -2.62322146E-07
v -0.28974539 0.348962843 -1.19312432E-07
v -0.476395369 0.712978005 -2.24938788E-07
v -0.471679121 0.882627904 -2.59225516E-07
v -0.253443688 0.375355124 -1.18851631E-07
v -0.404468358 0.756884992 -2.22292982E-07
v -0.382682174 0.9238801 -2.53250079E-07
v -0.21502386 0.398890018 -1.17455301E-07
v -0.328146368 0.792218566 -2.17159581E-07
v -0.174226493 0.41769743 -1.14694778E-07
vt 0.978578925 0.997271657
vt 0.995143771 0.788229823
vt 0.995090187 0.997486472
vt 0.97863245 0.788015008
vt 0.995197296 0.00850105286
vt 0.962067664 0.997056723
vt 0.978686094 0.00828611851
vt 0.962121248 0.787800133
vt 0.945556402 0.99684155
vt 0.962174892 0.00807130337
vt 0.945609927 0.78758496
vt 0.929045081 0.996626377
vt 0.945663571 0.0078561306
vt 0.929098725 0.787369788
vt 0.91253382 0.996411562
vt 0.92915225 0.00764095783
vt 0.912587404 0.787155092
vt 0.896022558 0.996196687
vt 0.912640989 0.00742638111
vt 0.896076083 0.786940455
vt 0.879511237 0.99598217
vt 0.896129727 0.0072119236
vt 0.879564881 0.786725581
vt 0.862999976 0.995767653
vt 0.879618406 0.00699675083
vt 0.86305356 0.786510706
vt 0.846488714 0.995552182
vt 0.863107085 0.00678157806
vt 0.846542239 0.786295533
vt 0.829977453 0.995336652
vt 0.846595883 0.00656664371
vt 0.830031037 0.78608036
vt 0.813466191 0.995121837
vt 0.830084682 0.00635182858
vt 0.813519776 0.785865724
vt 0.796954989 0.994907022
vt 0.81357336 0.00613731146
vt 0.797008514 0.785651088
vt 0.780443609 0.994692445
vt 0.797062039 0.00592285395
vt 0.780497193 0.785436153
vt 0.763932288 0.994477868
vt 0.780550718 0.00570768118
vt 0.763985872 0.785221338
vt 0.747420967 0.994263053
vt 0.764039516 0.00549250841
vt 0.74747467 0.785006523
vt 0.730909705 0.994048238
vt 0.747528195 0.00527763367
vt 0.730963349 0.784791708
vt 0.714398384 0.993833065
vt 0.731016934 0.00506287813
vt 0.714452028 0.784576654
vt 0.697887123 0.993617833
vt 0.714505613 0.00484794378
vt 0.697940707 0.784361541
vt 0.681375802 0.993402958
vt 0.697994292 0.00463300943
vt 0.681429446 0.784146667
vt 0.66486454 0.993188143
vt 0.681482971 0.00441813469
vt 0.664918125 0.783931851
vt 0.648353219 0.992973328
vt 0.664971709 0.00420325994
vt 0.648406804 0.783717036
vt 0.631841898 0.992758453
vt 0.648460388 0.0039883852
vt 0.631895483 0.783502162
vt 0.615330577 0.992543578
vt 0.631949127 0.00377362967
vt 0.615384221 0.783287287
vt 0.598819315 0.992328763
vt 0.615437806 0.00355875492
vt 0.5988729 0.783072472
vt 0.582307994 0.992113888
vt 0.598926544 0.00334388018
vt 0.582361579 0.782857597
vt 0.565796673 0.991899014
vt 0.582415223 0.00312906504
vt 0.565850258 0.782642722
vt 0.549285352 0.991683841
vt 0.565903902 0.0029142499
vt 0.549338937 0.782427728
vt 0.532774031 0.991468668
vt 0.549392581 0.00269937515
vt 0.532827616 0.782212734
vt 0.51626271 0.991253793
vt 0.53288126 0.00248450041
vt 0.516316295 0.7819978
vt 0.499751449 0.991038918
vt 0.516369939 0.00226962566
vt 0.499805003 0.781782985
vt 0.483240098 0.990824401
vt 0.499858558 0.00205475092
vt 0.483293653 0.78156817
vt 0.466728717 0.990609884
vt 0.483347237 0.00183963776
vt 0.466782331 0.781353354
vt 0.450217396 0.990394711
vt 0.466835856 0.00162452459
vt 0.45027101 0.781138301
vt 0.433706075 0.990179539
vt 0.450324595 0.00140964985
vt 0.433759689 0.780923307
vt 0.417194754 0.989964724
vt 0.433813214 0.0011947751
vt 0.417248368 0.780708611
vt 0.400683492 0.989749849
vt 0.417301953 0.000980257988
vt 0.400737047 0.780493915
vt 0.384172112 0.989535332
vt 0.400790691 0.000765740871
vt 0.384225726 0.78027904
vt 0.367660761 0.989320755
vt 0.38427937 0.000550568104
vt 0.367714405 0.780064225
vt 0.35114944 0.98910594
vt 0.367768049 0.000335395336
vt 0.351203084 0.77984935
vt 0.334638178 0.988891065
vt 0.351256728 0.000120520592
vt 0.334691763 0.779634476
vt 0.318126857 0.98867625
vt 0.334745407 -9.43541527E-05
vt 0.318180442 0.779419661
vt 0.301615536 0.988461435
vt 0.318234086 -0.000309169292
vt 0.301669121 0.779204845
vt 0.285104215 0.98824656
vt 0.301722765 -0.000523984432
vt 0.2851578 0.778989911
vt 0.268592894 0.988031685
vt 0.285211444 -0.000738918781
vt 0.268646479 0.778775036
vt 0.252081633 0.987816513
vt 0.268700123 -0.00095385313
vt 0.252135217 0.778559864
vt 0.235570341 0.98760134
vt 0.252188802 -0.0011690259
vt 0.235623956 0.778344691
vt 0.21905902 0.987386465
vt 0.235677481 -0.00138419867
vt 0.219112575 0.778129995
vt 0.20254764 0.98717165
vt 0.2191661 -0.00159871578
vt 0.202601194 0.777915359
vt 0.186036378 0.986956775
vt 0.202654719 -0.0018132329
vt 0.186089873 0.777700305
vt 0.169525057 0.9867419
vt 0.186143517 -0.00202840567
vt 0.169578612 0.777485311
vt 0.153013736 0.986527085
vt 0.169632196 -0.00224357843
vt 0.15306735 0.777270436
vt 0.136502415 0.98631227
vt 0.153120816 -0.00245845318
vt 0.136556029 0.777055621
vt 0.119991094 0.986097097
vt 0.136609554 -0.00267326832
vt 0.120044708 0.776840568
vt 0.103479773 0.985881865
vt 0.120098233 -0.00288808346
vt 0.103533328 0.776625574
vt 0.0869683921 0.985667348
vt 0.103586912 -0.0031028986
vt 0.0870219469 0.776410758
vt 0.0704570115 0.985452831
vt 0.0870755911 -0.00331807137
vt 0.0705106258 0.776195884
vt 0.0539456904 0.985237956
vt 0.07056427 -0.00353324413
vt 0.0539993048 0.775981188
vt 0.0374343693 0.985023141
vt 0.054052949 -0.00374782085
vt 0.0374879837 0.775766492
vt 0.0209231079 0.984807968
vt 0.0375416279 -0.00396227837
vt 0.0209767222 0.775551498
vt 0.0044118464 0.984592795
vt 0.0210303068 -0.00417721272
vt 0.00446546078 0.775336504
vt 0.00451898575 -0.00439202785
vn -0 0 1
vn -0 0 1
vn -0 0 1
vn -0 0 1
vn -0 0 1
vn -0 0 1
vn -0 0 1
vn -0 0 1
vn -0 0 1
vn -0 0 1
vn -0 0 1
vn -0 0 1
vn -0 0 1
vn -0 0 1
vn -0 0 1
vn -0 0 1
vn -0 0 1
vn -0 0 1
vn -0 0 1
vn -0 0 1
vn -0 0 1
vn -0 0 1
vn -0 0 1
vn -0 0 1
vn -0 0 1
vn -0 0 1
vn -0 0 1
vn -0 0 1
vn -0 0 1
vn -0 0 1
vn -0 0 1
vn -0 0 1
vn -0 0 1
vn -0 0 1
vn -0 0 1
vn -0 0 1
vn -0 0 1
vn -0 0 1
vn -0 0 1
vn -0 0 1
vn -0 0 1
vn -0 0 1
vn -0 0 1
vn -0 0 1
vn -0 0 1
vn -0 0 1
vn -0 0 1
vn -0 0 1
vn -0 0 1
vn -0 0 1
vn -0 0 1
vn -0 0 1
vn -0 0 1
vn -0 0 1
vn -0 0 1
vn -0 0 1
vn -0 0 1
vn -0 0 1
vn -0 0 1
vn -0 0 1
vn -0 0 1
vn -0 0 1
vn -0 0 1
vn -0 0 1
vn -0 0 1
vn -0 0 1
vn -0 0 1
vn -0 0 1
vn -0 0 1
vn -0 0 1
vn -0 0 1
vn -0 0 1
vn -0 0 1
vn -0 0 1
vn -0 0 1
vn -0 0 1
vn -0 0 1
vn -0 0 1
vn -0 0 1
vn -0 0 1
vn -0 0 1
vn -0 0 1
vn -0 0 1
vn -0 0 1
vn -0 0 1
vn -0 0 1
vn -0 0 1
vn -0 0 1
vn -0 0 1
vn -0 0 1
vn -0 0 1
vn -0 0 1
vn -0 0 1
vn -0 0 1
vn -0 0 1
vn -0 0 1
vn -0 0 1
vn -0 0 1
vn -0 0 1
vn -0 0 1
vn -0 0 1
vn -0 0 1
vn -0 0 1
vn -0 0 1
vn -0 0 1
vn -0 0 1
vn -0 0 1
vn -0 0 1
vn -0 0 1
vn -0 0 1
vn -0 0 1
vn -0 0 1
vn -0 0 1
vn -0 0 1
vn -0 0 1
vn -0 0 1
vn -0 0 1
vn -0 0 1
vn -0 0 1
vn -0 0 1
vn -0 0 1
vn -0 0 1
vn -0 0 1
vn -0 0 1
vn -0 0 1
vn -0 0 1
vn -0 0 1
vn -0 0 1
vn -0 0 1
vn -0 0 1
vn -0 0 1
vn -0 0 1
vn -0 0 1
vn -0 0 1
vn -0 0 1
vn -0 0 1
vn -0 0 1
vn -0 0 1
vn -0 0 1
vn -0 0 1
vn -0 0 1
vn -0 0 1
vn -0 0 1
vn -0 0 1
vn -0 0 1
vn -0 0 1
vn -0 0 1
vn -0 0 1
vn -0 0 1
vn -0 0 1
vn -0 0 1
vn -0 0 1
vn -0 0 1
vn -0 0 1
vn -0 0 1
vn -0 0 1
vn -0 0 1
vn -0 0 1
vn -0 0 1
vn -0 0 1
vn -0 0 1
vn -0 0 1
vn -0 0 1
vn -0 0 1
vn -0 0 1
vn -0 0 1
vn -0 0 1
vn -0 0 1
vn -0 0 1
vn -0 0 1
vn -0 0 1
vn -0 0 1
vn -0 0 1
vn -0 0 1
vn -0 0 1
vn -0 0 1
vn -0 0 1
vn -0 0 1
vn -0 0 1
vn -0 0 1
vn -0 0 1
vn -0 0 1
vn -0 0 1
g TrailThin_0
f 3/3/3 2/2/2 1/1/1
f 2/2/2 4/4/4 1/1/1
f 2/2/2 5/5/5 4/4/4
f 1/1/1 4/4/4 6/6/6
f 5/5/5 7/7/7 4/4/4
f 4/4/4 8/8/8 6/6/6
f 4/4/4 7/7/7 8/8/8
f 6/6/6 8/8/8 9/9/9
f 7/7/7 10/10/10 8/8/8
f 8/8/8 11/11/11 9/9/9
f 8/8/8 10/10/10 11/11/11
f 9/9/9 11/11/11 12/12/12
f 10/10/10 13/13/13 11/11/11
f 11/11/11 14/14/14 12/12/12
f 11/11/11 13/13/13 14/14/14
f 12/12/12 14/14/14 15/15/15
f 13/13/13 16/16/16 14/14/14
f 14/14/14 17/17/17 15/15/15
f 14/14/14 16/16/16 17/17/17
f 15/15/15 17/17/17 18/18/18
f 16/16/16 19/19/19 17/17/17
f 17/17/17 20/20/20 18/18/18
f 17/17/17 19/19/19 20/20/20
f 18/18/18 20/20/20 21/21/21
f 19/19/19 22/22/22 20/20/20
f 20/20/20 23/23/23 21/21/21
f 20/20/20 22/22/22 23/23/23
f 21/21/21 23/23/23 24/24/24
f 22/22/22 25/25/25 23/23/23
f 23/23/23 26/26/26 24/24/24
f 23/23/23 25/25/25 26/26/26
f 24/24/24 26/26/26 27/27/27
f 25/25/25 28/28/28 26/26/26
f 26/26/26 29/29/29 27/27/27
f 26/26/26 28/28/28 29/29/29
f 27/27/27 29/29/29 30/30/30
f 28/28/28 31/31/31 29/29/29
f 29/29/29 32/32/32 30/30/30
f 29/29/29 31/31/31 32/32/32
f 30/30/30 32/32/32 33/33/33
f 31/31/31 34/34/34 32/32/32
f 32/32/32 35/35/35 33/33/33
f 32/32/32 34/34/34 35/35/35
f 33/33/33 35/35/35 36/36/36
f 34/34/34 37/37/37 35/35/35
f 35/35/35 38/38/38 36/36/36
f 35/35/35 37/37/37 38/38/38
f 36/36/36 38/38/38 39/39/39
f 37/37/37 40/40/40 38/38/38
f 38/38/38 41/41/41 39/39/39
f 38/38/38 40/40/40 41/41/41
f 39/39/39 41/41/41 42/42/42
f 40/40/40 43/43/43 41/41/41
f 41/41/41 44/44/44 42/42/42
f 41/41/41 43/43/43 44/44/44
f 42/42/42 44/44/44 45/45/45
f 43/43/43 46/46/46 44/44/44
f 44/44/44 47/47/47 45/45/45
f 44/44/44 46/46/46 47/47/47
f 45/45/45 47/47/47 48/48/48
f 46/46/46 49/49/49 47/47/47
f 47/47/47 50/50/50 48/48/48
f 47/47/47 49/49/49 50/50/50
f 48/48/48 50/50/50 51/51/51
f 49/49/49 52/52/52 50/50/50
f 50/50/50 53/53/53 51/51/51
f 50/50/50 52/52/52 53/53/53
f 51/51/51 53/53/53 54/54/54
f 52/52/52 55/55/55 53/53/53
f 53/53/53 56/56/56 54/54/54
f 53/53/53 55/55/55 56/56/56
f 54/54/54 56/56/56 57/57/57
f 55/55/55 58/58/58 56/56/56
f 56/56/56 59/59/59 57/57/57
f 56/56/56 58/58/58 59/59/59
f 57/57/57 59/59/59 60/60/60
f 58/58/58 61/61/61 59/59/59
f 59/59/59 62/62/62 60/60/60
f 59/59/59 61/61/61 62/62/62
f 60/60/60 62/62/62 63/63/63
f 61/61/61 64/64/64 62/62/62
f 62/62/62 65/65/65 63/63/63
f 62/62/62 64/64/64 65/65/65
f 63/63/63 65/65/65 66/66/66
f 64/64/64 67/67/67 65/65/65
f 65/65/65 68/68/68 66/66/66
f 65/65/65 67/67/67 68/68/68
f 66/66/66 68/68/68 69/69/69
f 67/67/67 70/70/70 68/68/68
f 68/68/68 71/71/71 69/69/69
f 68/68/68 70/70/70 71/71/71
f 69/69/69 71/71/71 72/72/72
f 70/70/70 73/73/73 71/71/71
f 71/71/71 74/74/74 72/72/72
f 71/71/71 73/73/73 74/74/74
f 72/72/72 74/74/74 75/75/75
f 73/73/73 76/76/76 74/74/74
f 74/74/74 77/77/77 75/75/75
f 74/74/74 76/76/76 77/77/77
f 75/75/75 77/77/77 78/78/78
f 76/76/76 79/79/79 77/77/77
f 77/77/77 80/80/80 78/78/78
f 77/77/77 79/79/79 80/80/80
f 78/78/78 80/80/80 81/81/81
f 79/79/79 82/82/82 80/80/80
f 80/80/80 83/83/83 81/81/81
f 80/80/80 82/82/82 83/83/83
f 81/81/81 83/83/83 84/84/84
f 82/82/82 85/85/85 83/83/83
f 83/83/83 86/86/86 84/84/84
f 83/83/83 85/85/85 86/86/86
f 84/84/84 86/86/86 87/87/87
f 85/85/85 88/88/88 86/86/86
f 86/86/86 89/89/89 87/87/87
f 86/86/86 88/88/88 89/89/89
f 87/87/87 89/89/89 90/90/90
f 88/88/88 91/91/91 89/89/89
f 89/89/89 92/92/92 90/90/90
f 89/89/89 91/91/91 92/92/92
f 90/90/90 92/92/92 93/93/93
f 91/91/91 94/94/94 92/92/92
f 92/92/92 95/95/95 93/93/93
f 92/92/92 94/94/94 95/95/95
f 93/93/93 95/95/95 96/96/96
f 94/94/94 97/97/97 95/95/95
f 95/95/95 98/98/98 96/96/96
f 95/95/95 97/97/97 98/98/98
f 96/96/96 98/98/98 99/99/99
f 97/97/97 100/100/100 98/98/98
f 98/98/98 101/101/101 99/99/99
f 98/98/98 100/100/100 101/101/101
f 99/99/99 101/101/101 102/102/102
f 100/100/100 103/103/103 101/101/101
f 101/101/101 104/104/104 102/102/102
f 101/101/101 103/103/103 104/104/104
f 102/102/102 104/104/104 105/105/105
f 103/103/103 106/106/106 104/104/104
f 104/104/104 107/107/107 105/105/105
f 104/104/104 106/106/106 107/107/107
f 105/105/105 107/107/107 108/108/108
f 106/106/106 109/109/109 107/107/107
f 107/107/107 110/110/110 108/108/108
f 107/107/107 109/109/109 110/110/110
f 108/108/108 110/110/110 111/111/111
f 109/109/109 112/112/112 110/110/110
f 110/110/110 113/113/113 111/111/111
f 110/110/110 112/112/112 113/113/113
f 111/111/111 113/113/113 114/114/114
f 112/112/112 115/115/115 113/113/113
f 113/113/113 116/116/116 114/114/114
f 113/113/113 115/115/115 116/116/116
f 114/114/114 116/116/116 117/117/117
f 115/115/115 118/118/118 116/116/116
f 116/116/116 119/119/119 117/117/117
f 116/116/116 118/118/118 119/119/119
f 117/117/117 119/119/119 120/120/120
f 118/118/118 121/121/121 119/119/119
f 119/119/119 122/122/122 120/120/120
f 119/119/119 121/121/121 122/122/122
f 120/120/120 122/122/122 123/123/123
f 121/121/121 124/124/124 122/122/122
f 122/122/122 125/125/125 123/123/123
f 122/122/122 124/124/124 125/125/125
f 123/123/123 125/125/125 126/126/126
f 124/124/124 127/127/127 125/125/125
f 125/125/125 128/128/128 126/126/126
f 125/125/125 127/127/127 128/128/128
f 126/126/126 128/128/128 129/129/129
f 127/127/127 130/130/130 128/128/128
f 128/128/128 131/131/131 129/129/129
f 128/128/128 130/130/130 131/131/131
f 129/129/129 131/131/131 132/132/132
f 130/130/130 133/133/133 131/131/131
f 131/131/131 134/134/134 132/132/132
f 131/131/131 133/133/133 134/134/134
f 132/132/132 134/134/134 135/135/135
f 133/133/133 136/136/136 134/134/134
f 134/134/134 137/137/137 135/135/135
f 134/134/134 136/136/136 137/137/137
f 135/135/135 137/137/137 138/138/138
f 136/136/136 139/139/139 137/137/137
f 137/137/137 140/140/140 138/138/138
f 137/137/137 139/139/139 140/140/140
f 138/138/138 140/140/140 141/141/141
f 139/139/139 142/142/142 140/140/140
f 140/140/140 143/143/143 141/141/141
f 140/140/140 142/142/142 143/143/143
f 141/141/141 143/143/143 144/144/144
f 142/142/142 145/145/145 143/143/143
f 143/143/143 146/146/146 144/144/144
f 143/143/143 145/145/145 146/146/146
f 144/144/144 146/146/146 147/147/147
f 145/145/145 148/148/148 146/146/146
f 146/146/146 149/149/149 147/147/147
f 146/146/146 148/148/148 149/149/149
f 147/147/147 149/149/149 150/150/150
f 148/148/148 151/151/151 149/149/149
f 149/149/149 152/152/152 150/150/150
f 149/149/149 151/151/151 152/152/152
f 150/150/150 152/152/152 153/153/153
f 151/151/151 154/154/154 152/152/152
f 152/152/152 155/155/155 153/153/153
f 152/152/152 154/154/154 155/155/155
f 153/153/153 155/155/155 156/156/156
f 154/154/154 157/157/157 155/155/155
f 155/155/155 158/158/158 156/156/156
f 155/155/155 157/157/157 158/158/158
f 156/156/156 158/158/158 159/159/159
f 157/157/157 160/160/160 158/158/158
f 158/158/158 161/161/161 159/159/159
f 158/158/158 160/160/160 161/161/161
f 159/159/159 161/161/161 162/162/162
f 160/160/160 163/163/163 161/161/161
f 161/161/161 164/164/164 162/162/162
f 161/161/161 163/163/163 164/164/164
f 162/162/162 164/164/164 165/165/165
f 163/163/163 166/166/166 164/164/164
f 164/164/164 167/167/167 165/165/165
f 164/164/164 166/166/166 167/167/167
f 165/165/165 167/167/167 168/168/168
f 166/166/166 169/169/169 167/167/167
f 167/167/167 170/170/170 168/168/168
f 167/167/167 169/169/169 170/170/170
f 168/168/168 170/170/170 171/171/171
f 169/169/169 172/172/172 170/170/170
f 170/170/170 173/173/173 171/171/171
f 170/170/170 172/172/172 173/173/173
f 171/171/171 173/173/173 174/174/174
f 172/172/172 175/175/175 173/173/173
f 173/173/173 176/176/176 174/174/174
f 173/173/173 175/175/175 176/176/176
f 174/174/174 176/176/176 177/177/177
f 175/175/175 178/178/178 176/176/176
f 176/176/176 179/179/179 177/177/177
f 176/176/176 178/178/178 179/179/179
f 177/177/177 179/179/179 180/180/180
f 178/178/178 181/181/181 179/179/179
f 179/179/179 182/182/182 180/180/180
f 179/179/179 181/181/181 182/182/182
f 181/181/181 183/183/183 182/182/182
